M48
;GenerationSoftware,Autodesk,EAGLE,9.2.2*%
;CreationDate,2020-06-29T07:09:45Z*%
FMAT,2
ICI,OFF
METRIC,TZ,000.000
T7C0.350
T6C0.813
T5C1.016
T4C1.500
T3C1.714
T2C2.032
T1C4.000
%
G90
M71
T1
X59690Y8890
X59690Y25400
X59690Y41910
X59690Y58420
X43180Y8890
X43180Y25400
X43180Y41910
X43180Y58420
X26670Y8890
X26670Y25400
X26670Y41910
X26670Y58420
X10160Y8890
X10160Y25400
X10160Y58420
X10160Y41910
T2
X66040Y83820
X3810Y83820
T3
X5080Y58420
X15240Y58420
X15240Y41910
X5080Y41910
X38100Y41910
X15240Y25400
X5080Y25400
X54610Y8890
X15240Y8890
X5080Y8890
X64770Y8890
X31750Y58420
X21590Y58420
X54610Y25400
X31750Y41910
X21590Y41910
X64770Y25400
X31750Y25400
X21590Y25400
X54610Y41910
X31750Y8890
X21590Y8890
X64770Y41910
X48260Y58420
X38100Y58420
X54610Y58420
X48260Y41910
X64770Y58420
X38100Y8890
X48260Y25400
X38100Y25400
X48260Y8890
T4
X62230Y30480
X55880Y27940
X55880Y11430
X12700Y46990
X62230Y46990
X62230Y13970
X55880Y44450
X62230Y63500
X6350Y44450
X55880Y60960
X45720Y13970
X12700Y63500
X39370Y11430
X45720Y30480
X6350Y60960
X39370Y27940
X45720Y46990
X39370Y44450
X45720Y63500
X39370Y60960
X29210Y13970
X22860Y11430
X29210Y30480
X22860Y27940
X29210Y46990
X22860Y44450
X29210Y63500
X22860Y60960
X12700Y13970
X6350Y11430
X12700Y30480
X6350Y27940
T5
X64770Y76327
X11557Y72390
X8763Y72390
X64770Y73533
X55880Y69850
X55880Y72390
X55880Y74930
X55880Y77470
T6
X22860Y78740
X20320Y78740
X17780Y78740
X15240Y78740
X25400Y78740
X27940Y78740
X30480Y78740
X33020Y78740
X35560Y78740
X38100Y78740
X40640Y78740
X43180Y78740
X45720Y78740
X48260Y78740
X48260Y71120
X45720Y71120
X43180Y71120
X40640Y71120
X38100Y71120
X35560Y71120
X33020Y71120
X30480Y71120
X27940Y71120
X25400Y71120
X22860Y71120
X20320Y71120
X17780Y71120
X15240Y71120
T7
X58420Y36830
X14605Y20066
X22479Y67310
X45720Y54610
X63500Y5080
X35560Y6350
X55880Y5080
X29210Y53340
X60960Y53340
X63500Y20320
X24130Y21590
X7620Y21590
X22860Y38100
X13970Y38100
X6350Y68580
X55880Y81280
M30