G04 EAGLE Gerber RS-274X export*
G75*
%MOMM*%
%FSLAX34Y34*%
%LPD*%
%INSoldermask Top*%
%IPPOS*%
%AMOC8*
5,1,8,0,0,1.08239X$1,22.5*%
G01*
%ADD10C,2.235200*%
%ADD11C,1.524000*%
%ADD12C,2.082800*%
%ADD13C,2.743200*%
%ADD14C,4.203600*%
%ADD15C,1.917600*%
%ADD16R,1.003200X1.403200*%
%ADD17C,0.959600*%

G36*
X647848Y758173D02*
X647848Y758173D01*
X647939Y758172D01*
X648903Y758303D01*
X648951Y758319D01*
X649040Y758338D01*
X649951Y758680D01*
X649994Y758706D01*
X650078Y758745D01*
X650889Y759282D01*
X650925Y759317D01*
X650998Y759373D01*
X651670Y760077D01*
X651698Y760119D01*
X651756Y760190D01*
X652254Y761026D01*
X652255Y761029D01*
X652257Y761031D01*
X652263Y761050D01*
X652272Y761073D01*
X652312Y761155D01*
X652612Y762081D01*
X652619Y762131D01*
X652641Y762220D01*
X652727Y763189D01*
X652723Y763236D01*
X652726Y763311D01*
X652624Y764287D01*
X652610Y764335D01*
X652594Y764425D01*
X652278Y765354D01*
X652254Y765398D01*
X652217Y765483D01*
X651703Y766318D01*
X651669Y766355D01*
X651615Y766430D01*
X650927Y767130D01*
X650886Y767159D01*
X650817Y767219D01*
X649990Y767748D01*
X649944Y767767D01*
X649863Y767811D01*
X648940Y768143D01*
X648890Y768151D01*
X648801Y768176D01*
X647827Y768294D01*
X647777Y768291D01*
X647691Y768295D01*
X646689Y768200D01*
X646640Y768186D01*
X646550Y768170D01*
X645594Y767854D01*
X645549Y767830D01*
X645465Y767795D01*
X644604Y767273D01*
X644566Y767240D01*
X644491Y767187D01*
X643767Y766487D01*
X643738Y766446D01*
X643677Y766377D01*
X643127Y765534D01*
X643107Y765488D01*
X643063Y765407D01*
X642715Y764463D01*
X642706Y764413D01*
X642681Y764325D01*
X642551Y763327D01*
X642553Y763284D01*
X642552Y763158D01*
X642691Y762147D01*
X642707Y762099D01*
X642726Y762009D01*
X643088Y761054D01*
X643114Y761011D01*
X643153Y760927D01*
X643717Y760077D01*
X643752Y760040D01*
X643809Y759968D01*
X644549Y759264D01*
X644591Y759236D01*
X644662Y759178D01*
X645540Y758657D01*
X645587Y758639D01*
X645669Y758598D01*
X646641Y758285D01*
X646691Y758278D01*
X646780Y758257D01*
X647798Y758168D01*
X647848Y758173D01*
G37*
G36*
X647848Y730182D02*
X647848Y730182D01*
X647939Y730181D01*
X648903Y730312D01*
X648951Y730328D01*
X649040Y730347D01*
X649951Y730689D01*
X649994Y730715D01*
X650078Y730754D01*
X650889Y731291D01*
X650925Y731326D01*
X650998Y731382D01*
X651670Y732086D01*
X651698Y732128D01*
X651756Y732199D01*
X652254Y733035D01*
X652255Y733038D01*
X652257Y733040D01*
X652263Y733059D01*
X652272Y733082D01*
X652312Y733164D01*
X652612Y734090D01*
X652619Y734140D01*
X652641Y734229D01*
X652727Y735198D01*
X652723Y735245D01*
X652726Y735320D01*
X652624Y736296D01*
X652610Y736344D01*
X652594Y736434D01*
X652278Y737363D01*
X652254Y737407D01*
X652217Y737492D01*
X651703Y738327D01*
X651669Y738364D01*
X651615Y738439D01*
X650927Y739139D01*
X650886Y739168D01*
X650817Y739228D01*
X649990Y739757D01*
X649944Y739776D01*
X649863Y739820D01*
X648940Y740152D01*
X648890Y740160D01*
X648801Y740185D01*
X647827Y740303D01*
X647777Y740300D01*
X647691Y740304D01*
X646689Y740209D01*
X646640Y740195D01*
X646550Y740179D01*
X645594Y739863D01*
X645549Y739839D01*
X645465Y739804D01*
X644604Y739282D01*
X644566Y739249D01*
X644491Y739196D01*
X643767Y738496D01*
X643738Y738455D01*
X643677Y738386D01*
X643127Y737543D01*
X643107Y737497D01*
X643063Y737416D01*
X642715Y736472D01*
X642706Y736422D01*
X642681Y736334D01*
X642551Y735336D01*
X642553Y735293D01*
X642552Y735167D01*
X642691Y734156D01*
X642707Y734108D01*
X642726Y734018D01*
X643088Y733063D01*
X643114Y733020D01*
X643153Y732936D01*
X643717Y732086D01*
X643752Y732049D01*
X643809Y731977D01*
X644549Y731273D01*
X644591Y731245D01*
X644662Y731187D01*
X645540Y730666D01*
X645587Y730648D01*
X645669Y730607D01*
X646641Y730294D01*
X646691Y730287D01*
X646780Y730266D01*
X647798Y730177D01*
X647848Y730182D01*
G37*
G36*
X87616Y718753D02*
X87616Y718753D01*
X87742Y718752D01*
X88753Y718891D01*
X88801Y718907D01*
X88891Y718926D01*
X89846Y719288D01*
X89889Y719314D01*
X89973Y719353D01*
X90823Y719917D01*
X90860Y719952D01*
X90932Y720009D01*
X91636Y720749D01*
X91664Y720791D01*
X91722Y720862D01*
X92243Y721740D01*
X92261Y721787D01*
X92302Y721869D01*
X92615Y722841D01*
X92622Y722891D01*
X92643Y722980D01*
X92732Y723998D01*
X92727Y724048D01*
X92728Y724139D01*
X92597Y725103D01*
X92581Y725151D01*
X92562Y725240D01*
X92220Y726151D01*
X92194Y726194D01*
X92155Y726278D01*
X91618Y727089D01*
X91583Y727125D01*
X91527Y727198D01*
X90823Y727870D01*
X90781Y727898D01*
X90710Y727956D01*
X89875Y728454D01*
X89827Y728472D01*
X89745Y728512D01*
X88820Y728812D01*
X88769Y728819D01*
X88680Y728841D01*
X87711Y728927D01*
X87664Y728923D01*
X87589Y728926D01*
X86613Y728824D01*
X86565Y728810D01*
X86475Y728794D01*
X85546Y728478D01*
X85502Y728454D01*
X85417Y728417D01*
X84582Y727903D01*
X84545Y727869D01*
X84470Y727815D01*
X83771Y727127D01*
X83741Y727086D01*
X83681Y727017D01*
X83152Y726190D01*
X83133Y726144D01*
X83089Y726063D01*
X82757Y725140D01*
X82749Y725090D01*
X82724Y725001D01*
X82606Y724027D01*
X82609Y723977D01*
X82605Y723891D01*
X82700Y722889D01*
X82714Y722840D01*
X82730Y722750D01*
X83046Y721794D01*
X83070Y721749D01*
X83106Y721665D01*
X83627Y720804D01*
X83660Y720766D01*
X83713Y720691D01*
X84413Y719967D01*
X84454Y719938D01*
X84523Y719877D01*
X85366Y719327D01*
X85412Y719307D01*
X85493Y719263D01*
X86437Y718915D01*
X86487Y718906D01*
X86575Y718881D01*
X87573Y718751D01*
X87616Y718753D01*
G37*
G36*
X115607Y718753D02*
X115607Y718753D01*
X115733Y718752D01*
X116744Y718891D01*
X116792Y718907D01*
X116882Y718926D01*
X117837Y719288D01*
X117880Y719314D01*
X117964Y719353D01*
X118814Y719917D01*
X118851Y719952D01*
X118923Y720009D01*
X119627Y720749D01*
X119655Y720791D01*
X119713Y720862D01*
X120234Y721740D01*
X120252Y721787D01*
X120293Y721869D01*
X120606Y722841D01*
X120613Y722891D01*
X120634Y722980D01*
X120723Y723998D01*
X120718Y724048D01*
X120719Y724139D01*
X120588Y725103D01*
X120572Y725151D01*
X120553Y725240D01*
X120211Y726151D01*
X120185Y726194D01*
X120146Y726278D01*
X119609Y727089D01*
X119574Y727125D01*
X119518Y727198D01*
X118814Y727870D01*
X118772Y727898D01*
X118701Y727956D01*
X117866Y728454D01*
X117818Y728472D01*
X117736Y728512D01*
X116811Y728812D01*
X116760Y728819D01*
X116671Y728841D01*
X115702Y728927D01*
X115655Y728923D01*
X115580Y728926D01*
X114604Y728824D01*
X114556Y728810D01*
X114466Y728794D01*
X113537Y728478D01*
X113493Y728454D01*
X113408Y728417D01*
X112573Y727903D01*
X112536Y727869D01*
X112461Y727815D01*
X111762Y727127D01*
X111732Y727086D01*
X111672Y727017D01*
X111143Y726190D01*
X111124Y726144D01*
X111080Y726063D01*
X110748Y725140D01*
X110740Y725090D01*
X110715Y725001D01*
X110597Y724027D01*
X110600Y723977D01*
X110596Y723891D01*
X110691Y722889D01*
X110705Y722840D01*
X110721Y722750D01*
X111037Y721794D01*
X111061Y721749D01*
X111097Y721665D01*
X111618Y720804D01*
X111651Y720766D01*
X111704Y720691D01*
X112404Y719967D01*
X112445Y719938D01*
X112514Y719877D01*
X113357Y719327D01*
X113403Y719307D01*
X113484Y719263D01*
X114428Y718915D01*
X114478Y718906D01*
X114566Y718881D01*
X115564Y718751D01*
X115607Y718753D01*
G37*
D10*
X38100Y838200D03*
X660400Y838200D03*
D11*
X152400Y717804D02*
X152400Y704596D01*
X177800Y704596D02*
X177800Y717804D01*
X203200Y717804D02*
X203200Y704596D01*
X228600Y704596D02*
X228600Y717804D01*
X254000Y717804D02*
X254000Y704596D01*
X279400Y704596D02*
X279400Y717804D01*
X304800Y717804D02*
X304800Y704596D01*
X330200Y704596D02*
X330200Y717804D01*
X355600Y717804D02*
X355600Y704596D01*
X381000Y704596D02*
X381000Y717804D01*
X406400Y717804D02*
X406400Y704596D01*
X431800Y704596D02*
X431800Y717804D01*
X457200Y717804D02*
X457200Y704596D01*
X482600Y704596D02*
X482600Y717804D01*
X482600Y780796D02*
X482600Y794004D01*
X457200Y794004D02*
X457200Y780796D01*
X431800Y780796D02*
X431800Y794004D01*
X406400Y794004D02*
X406400Y780796D01*
X381000Y780796D02*
X381000Y794004D01*
X355600Y794004D02*
X355600Y780796D01*
X330200Y780796D02*
X330200Y794004D01*
X304800Y794004D02*
X304800Y780796D01*
X279400Y780796D02*
X279400Y794004D01*
X254000Y794004D02*
X254000Y780796D01*
X228600Y780796D02*
X228600Y794004D01*
X203200Y794004D02*
X203200Y780796D01*
X177800Y780796D02*
X177800Y794004D01*
X152400Y794004D02*
X152400Y780796D01*
D12*
X558800Y774700D03*
X558800Y749300D03*
X558800Y723900D03*
X558800Y698500D03*
D13*
X63500Y609600D03*
X127000Y635000D03*
D14*
X101600Y584200D03*
D15*
X152400Y584200D03*
X50800Y584200D03*
D13*
X63500Y444500D03*
X127000Y469900D03*
D14*
X101600Y419100D03*
D15*
X152400Y419100D03*
X50800Y419100D03*
D13*
X63500Y279400D03*
X127000Y304800D03*
D14*
X101600Y254000D03*
D15*
X152400Y254000D03*
X50800Y254000D03*
D13*
X63500Y114300D03*
X127000Y139700D03*
D14*
X101600Y88900D03*
D15*
X152400Y88900D03*
X50800Y88900D03*
D13*
X228600Y609600D03*
X292100Y635000D03*
D14*
X266700Y584200D03*
D15*
X317500Y584200D03*
X215900Y584200D03*
D13*
X228600Y444500D03*
X292100Y469900D03*
D14*
X266700Y419100D03*
D15*
X317500Y419100D03*
X215900Y419100D03*
D13*
X228600Y279400D03*
X292100Y304800D03*
D14*
X266700Y254000D03*
D15*
X317500Y254000D03*
X215900Y254000D03*
D13*
X228600Y114300D03*
X292100Y139700D03*
D14*
X266700Y88900D03*
D15*
X317500Y88900D03*
X215900Y88900D03*
D13*
X393700Y609600D03*
X457200Y635000D03*
D14*
X431800Y584200D03*
D15*
X482600Y584200D03*
X381000Y584200D03*
D13*
X393700Y444500D03*
X457200Y469900D03*
D14*
X431800Y419100D03*
D15*
X482600Y419100D03*
X381000Y419100D03*
D13*
X393700Y279400D03*
X457200Y304800D03*
D14*
X431800Y254000D03*
D15*
X482600Y254000D03*
X381000Y254000D03*
D13*
X393700Y114300D03*
X457200Y139700D03*
D14*
X431800Y88900D03*
D15*
X482600Y88900D03*
X381000Y88900D03*
D13*
X558800Y609600D03*
X622300Y635000D03*
D14*
X596900Y584200D03*
D15*
X647700Y584200D03*
X546100Y584200D03*
D13*
X558800Y444500D03*
X622300Y469900D03*
D14*
X596900Y419100D03*
D15*
X647700Y419100D03*
X546100Y419100D03*
D13*
X558800Y279400D03*
X622300Y304800D03*
D14*
X596900Y254000D03*
D15*
X647700Y254000D03*
X546100Y254000D03*
D13*
X558800Y114300D03*
X622300Y139700D03*
D14*
X596900Y88900D03*
D15*
X647700Y88900D03*
X546100Y88900D03*
D16*
X486300Y844550D03*
X504300Y844550D03*
X486300Y825500D03*
X504300Y825500D03*
X439310Y844550D03*
X457310Y844550D03*
X439310Y825500D03*
X457310Y825500D03*
X409050Y844550D03*
X391050Y844550D03*
X409050Y825500D03*
X391050Y825500D03*
X351900Y844550D03*
X333900Y844550D03*
X351900Y825500D03*
X333900Y825500D03*
D17*
X558800Y812800D03*
X63500Y685800D03*
X139700Y381000D03*
X228600Y381000D03*
X76200Y215900D03*
X241300Y215900D03*
X635000Y203200D03*
X609600Y533400D03*
X292100Y533400D03*
X558800Y50800D03*
X355600Y63500D03*
X635000Y50800D03*
X457200Y546100D03*
X224790Y673100D03*
X146050Y200660D03*
X584200Y368300D03*
M02*
