G04 EAGLE Gerber RS-274X export*
G75*
%MOMM*%
%FSLAX34Y34*%
%LPD*%
%INSoldermask Bottom*%
%IPPOS*%
%AMOC8*
5,1,8,0,0,1.08239X$1,22.5*%
G01*
%ADD10C,2.235200*%
%ADD11C,0.304800*%
%ADD12C,0.355600*%
%ADD13C,0.203200*%
%ADD14C,1.524000*%
%ADD15C,2.082800*%
%ADD16C,2.743200*%
%ADD17C,4.203600*%
%ADD18C,1.917600*%
%ADD19C,0.959600*%

G36*
X89390Y713859D02*
X89390Y713859D01*
X89433Y713871D01*
X89499Y713880D01*
X91116Y714334D01*
X91157Y714353D01*
X91185Y714362D01*
X91195Y714364D01*
X91199Y714366D01*
X91220Y714373D01*
X92734Y715101D01*
X92770Y715127D01*
X92829Y715157D01*
X94194Y716138D01*
X94225Y716170D01*
X94278Y716210D01*
X95452Y717412D01*
X95477Y717449D01*
X95522Y717497D01*
X96469Y718885D01*
X96487Y718926D01*
X96523Y718982D01*
X97215Y720513D01*
X97226Y720556D01*
X97252Y720617D01*
X97667Y722246D01*
X97670Y722290D01*
X97685Y722355D01*
X97811Y724030D01*
X97807Y724077D01*
X97809Y724149D01*
X97604Y725985D01*
X97590Y726031D01*
X97578Y726106D01*
X97018Y727867D01*
X96995Y727909D01*
X96969Y727981D01*
X96076Y729598D01*
X96046Y729636D01*
X96006Y729701D01*
X94815Y731113D01*
X94778Y731144D01*
X94726Y731200D01*
X93282Y732353D01*
X93240Y732376D01*
X93178Y732420D01*
X91537Y733269D01*
X91491Y733284D01*
X91422Y733315D01*
X89647Y733828D01*
X89599Y733833D01*
X89524Y733851D01*
X87684Y734007D01*
X87640Y734003D01*
X87575Y734007D01*
X85744Y733847D01*
X85698Y733834D01*
X85622Y733824D01*
X83858Y733310D01*
X83814Y733289D01*
X83742Y733264D01*
X82112Y732415D01*
X82074Y732386D01*
X82008Y732347D01*
X80575Y731197D01*
X80543Y731161D01*
X80486Y731110D01*
X79305Y729702D01*
X79281Y729661D01*
X79235Y729600D01*
X79025Y729218D01*
X78351Y727988D01*
X78336Y727943D01*
X78302Y727874D01*
X77750Y726121D01*
X77744Y726074D01*
X77724Y726000D01*
X77525Y724173D01*
X77528Y724127D01*
X77522Y724058D01*
X77645Y722382D01*
X77656Y722339D01*
X77662Y722273D01*
X78074Y720643D01*
X78092Y720603D01*
X78110Y720539D01*
X78798Y719006D01*
X78823Y718969D01*
X78852Y718909D01*
X79796Y717519D01*
X79827Y717487D01*
X79865Y717433D01*
X81036Y716227D01*
X81073Y716201D01*
X81120Y716155D01*
X82482Y715171D01*
X82523Y715152D01*
X82577Y715115D01*
X84090Y714382D01*
X84133Y714370D01*
X84144Y714365D01*
X84171Y714352D01*
X84176Y714351D01*
X84193Y714343D01*
X85810Y713885D01*
X85855Y713880D01*
X85919Y713864D01*
X87591Y713693D01*
X87639Y713697D01*
X87718Y713693D01*
X89390Y713859D01*
G37*
G36*
X117381Y713859D02*
X117381Y713859D01*
X117424Y713871D01*
X117490Y713880D01*
X119107Y714334D01*
X119148Y714353D01*
X119176Y714362D01*
X119186Y714364D01*
X119190Y714366D01*
X119211Y714373D01*
X120725Y715101D01*
X120761Y715127D01*
X120820Y715157D01*
X122185Y716138D01*
X122216Y716170D01*
X122269Y716210D01*
X123443Y717412D01*
X123468Y717449D01*
X123513Y717497D01*
X124460Y718885D01*
X124478Y718926D01*
X124514Y718982D01*
X125206Y720513D01*
X125217Y720556D01*
X125243Y720617D01*
X125658Y722246D01*
X125661Y722290D01*
X125676Y722355D01*
X125802Y724030D01*
X125798Y724077D01*
X125800Y724149D01*
X125595Y725985D01*
X125581Y726031D01*
X125569Y726106D01*
X125009Y727867D01*
X124986Y727909D01*
X124960Y727981D01*
X124067Y729598D01*
X124037Y729636D01*
X123997Y729701D01*
X122806Y731113D01*
X122769Y731144D01*
X122717Y731200D01*
X121273Y732353D01*
X121231Y732376D01*
X121169Y732420D01*
X119528Y733269D01*
X119482Y733284D01*
X119413Y733315D01*
X117638Y733828D01*
X117590Y733833D01*
X117515Y733851D01*
X115675Y734007D01*
X115631Y734003D01*
X115566Y734007D01*
X113735Y733847D01*
X113689Y733834D01*
X113613Y733824D01*
X111849Y733310D01*
X111805Y733289D01*
X111733Y733264D01*
X110103Y732415D01*
X110065Y732386D01*
X109999Y732347D01*
X108566Y731197D01*
X108534Y731161D01*
X108477Y731110D01*
X107296Y729702D01*
X107272Y729661D01*
X107226Y729600D01*
X107016Y729218D01*
X106342Y727988D01*
X106327Y727943D01*
X106293Y727874D01*
X105741Y726121D01*
X105735Y726074D01*
X105715Y726000D01*
X105516Y724173D01*
X105519Y724127D01*
X105513Y724058D01*
X105636Y722382D01*
X105647Y722339D01*
X105653Y722273D01*
X106065Y720643D01*
X106083Y720603D01*
X106101Y720539D01*
X106789Y719006D01*
X106814Y718969D01*
X106843Y718909D01*
X107787Y717519D01*
X107818Y717487D01*
X107856Y717433D01*
X109027Y716227D01*
X109064Y716201D01*
X109111Y716155D01*
X110473Y715171D01*
X110514Y715152D01*
X110568Y715115D01*
X112081Y714382D01*
X112124Y714370D01*
X112135Y714365D01*
X112162Y714352D01*
X112167Y714351D01*
X112184Y714343D01*
X113801Y713885D01*
X113846Y713880D01*
X113910Y713864D01*
X115582Y713693D01*
X115630Y713697D01*
X115709Y713693D01*
X117381Y713859D01*
G37*
G36*
X647877Y753093D02*
X647877Y753093D01*
X647949Y753091D01*
X649785Y753296D01*
X649831Y753310D01*
X649906Y753322D01*
X651667Y753882D01*
X651709Y753905D01*
X651781Y753931D01*
X653398Y754824D01*
X653436Y754854D01*
X653501Y754894D01*
X654913Y756085D01*
X654944Y756122D01*
X655000Y756174D01*
X656153Y757618D01*
X656176Y757660D01*
X656220Y757722D01*
X657069Y759363D01*
X657084Y759409D01*
X657115Y759478D01*
X657628Y761253D01*
X657633Y761301D01*
X657651Y761376D01*
X657807Y763216D01*
X657803Y763260D01*
X657807Y763325D01*
X657647Y765156D01*
X657634Y765202D01*
X657624Y765278D01*
X657110Y767042D01*
X657089Y767086D01*
X657064Y767158D01*
X656215Y768788D01*
X656186Y768826D01*
X656147Y768892D01*
X654997Y770325D01*
X654961Y770357D01*
X654910Y770414D01*
X653502Y771595D01*
X653461Y771619D01*
X653400Y771665D01*
X651788Y772549D01*
X651743Y772564D01*
X651674Y772598D01*
X649921Y773150D01*
X649874Y773156D01*
X649800Y773176D01*
X647973Y773376D01*
X647927Y773372D01*
X647858Y773378D01*
X646182Y773255D01*
X646139Y773244D01*
X646073Y773238D01*
X644443Y772827D01*
X644403Y772808D01*
X644339Y772790D01*
X642806Y772102D01*
X642769Y772077D01*
X642709Y772048D01*
X641319Y771104D01*
X641287Y771073D01*
X641233Y771035D01*
X640027Y769864D01*
X640001Y769828D01*
X639955Y769780D01*
X638971Y768418D01*
X638952Y768377D01*
X638915Y768323D01*
X638182Y766810D01*
X638170Y766767D01*
X638143Y766707D01*
X637685Y765090D01*
X637680Y765045D01*
X637664Y764981D01*
X637493Y763309D01*
X637497Y763261D01*
X637493Y763182D01*
X637659Y761510D01*
X637671Y761467D01*
X637680Y761402D01*
X638134Y759784D01*
X638153Y759743D01*
X638173Y759680D01*
X638901Y758166D01*
X638927Y758130D01*
X638957Y758071D01*
X639938Y756706D01*
X639970Y756675D01*
X640010Y756622D01*
X641212Y755448D01*
X641249Y755423D01*
X641297Y755378D01*
X642685Y754431D01*
X642726Y754413D01*
X642782Y754377D01*
X644313Y753685D01*
X644356Y753674D01*
X644417Y753648D01*
X646046Y753233D01*
X646090Y753230D01*
X646155Y753215D01*
X647830Y753089D01*
X647877Y753093D01*
G37*
G36*
X647877Y725102D02*
X647877Y725102D01*
X647949Y725100D01*
X649785Y725305D01*
X649831Y725319D01*
X649906Y725331D01*
X651667Y725891D01*
X651709Y725914D01*
X651781Y725940D01*
X653398Y726833D01*
X653436Y726863D01*
X653501Y726903D01*
X654913Y728094D01*
X654944Y728131D01*
X655000Y728183D01*
X656153Y729627D01*
X656176Y729669D01*
X656220Y729731D01*
X657069Y731372D01*
X657084Y731418D01*
X657115Y731487D01*
X657628Y733262D01*
X657633Y733310D01*
X657651Y733385D01*
X657807Y735225D01*
X657803Y735269D01*
X657807Y735334D01*
X657647Y737165D01*
X657634Y737211D01*
X657624Y737287D01*
X657110Y739051D01*
X657089Y739095D01*
X657064Y739167D01*
X656215Y740797D01*
X656186Y740835D01*
X656147Y740901D01*
X654997Y742334D01*
X654961Y742366D01*
X654910Y742423D01*
X653502Y743604D01*
X653461Y743628D01*
X653400Y743674D01*
X651788Y744558D01*
X651743Y744573D01*
X651674Y744607D01*
X649921Y745159D01*
X649874Y745165D01*
X649800Y745185D01*
X647973Y745385D01*
X647927Y745381D01*
X647858Y745387D01*
X646182Y745264D01*
X646139Y745253D01*
X646073Y745247D01*
X644443Y744836D01*
X644403Y744817D01*
X644339Y744799D01*
X642806Y744111D01*
X642769Y744086D01*
X642709Y744057D01*
X641319Y743113D01*
X641287Y743082D01*
X641233Y743044D01*
X640027Y741873D01*
X640001Y741837D01*
X639955Y741789D01*
X638971Y740427D01*
X638952Y740386D01*
X638915Y740332D01*
X638182Y738819D01*
X638170Y738776D01*
X638143Y738716D01*
X637685Y737099D01*
X637680Y737054D01*
X637664Y736990D01*
X637493Y735318D01*
X637497Y735270D01*
X637493Y735191D01*
X637659Y733519D01*
X637671Y733476D01*
X637680Y733411D01*
X638134Y731793D01*
X638153Y731752D01*
X638173Y731689D01*
X638901Y730175D01*
X638927Y730139D01*
X638957Y730080D01*
X639938Y728715D01*
X639970Y728684D01*
X640010Y728631D01*
X641212Y727457D01*
X641249Y727432D01*
X641297Y727387D01*
X642685Y726440D01*
X642726Y726422D01*
X642782Y726386D01*
X644313Y725694D01*
X644356Y725683D01*
X644417Y725657D01*
X646046Y725242D01*
X646090Y725239D01*
X646155Y725224D01*
X647830Y725098D01*
X647877Y725102D01*
G37*
D10*
X38100Y838200D03*
X660400Y838200D03*
D11*
X423135Y218948D02*
X423135Y202692D01*
X427651Y202692D01*
X427752Y202694D01*
X427853Y202700D01*
X427954Y202709D01*
X428055Y202722D01*
X428155Y202739D01*
X428254Y202760D01*
X428352Y202784D01*
X428449Y202812D01*
X428546Y202844D01*
X428641Y202879D01*
X428734Y202918D01*
X428826Y202960D01*
X428917Y203006D01*
X429006Y203055D01*
X429092Y203107D01*
X429177Y203163D01*
X429260Y203221D01*
X429340Y203283D01*
X429418Y203348D01*
X429494Y203415D01*
X429567Y203485D01*
X429637Y203558D01*
X429704Y203634D01*
X429769Y203712D01*
X429831Y203792D01*
X429889Y203875D01*
X429945Y203960D01*
X429997Y204046D01*
X430046Y204135D01*
X430092Y204226D01*
X430134Y204318D01*
X430173Y204411D01*
X430208Y204506D01*
X430240Y204603D01*
X430268Y204700D01*
X430292Y204798D01*
X430313Y204897D01*
X430330Y204997D01*
X430343Y205098D01*
X430352Y205199D01*
X430358Y205300D01*
X430360Y205401D01*
X430360Y210820D01*
X430358Y210921D01*
X430352Y211022D01*
X430343Y211123D01*
X430330Y211224D01*
X430313Y211324D01*
X430292Y211423D01*
X430268Y211521D01*
X430240Y211618D01*
X430208Y211715D01*
X430173Y211810D01*
X430134Y211903D01*
X430092Y211995D01*
X430046Y212086D01*
X429997Y212175D01*
X429945Y212261D01*
X429889Y212346D01*
X429831Y212429D01*
X429769Y212509D01*
X429704Y212587D01*
X429637Y212663D01*
X429567Y212736D01*
X429494Y212806D01*
X429418Y212873D01*
X429340Y212938D01*
X429260Y213000D01*
X429177Y213058D01*
X429092Y213114D01*
X429006Y213166D01*
X428917Y213215D01*
X428826Y213261D01*
X428734Y213303D01*
X428641Y213342D01*
X428546Y213377D01*
X428449Y213409D01*
X428352Y213437D01*
X428254Y213461D01*
X428155Y213482D01*
X428055Y213499D01*
X427954Y213512D01*
X427853Y213521D01*
X427752Y213527D01*
X427651Y213529D01*
X423135Y213529D01*
X412462Y202692D02*
X407947Y202692D01*
X412462Y202692D02*
X412563Y202694D01*
X412664Y202700D01*
X412765Y202709D01*
X412866Y202722D01*
X412966Y202739D01*
X413065Y202760D01*
X413163Y202784D01*
X413260Y202812D01*
X413357Y202844D01*
X413452Y202879D01*
X413545Y202918D01*
X413637Y202960D01*
X413728Y203006D01*
X413817Y203055D01*
X413903Y203107D01*
X413988Y203163D01*
X414071Y203221D01*
X414151Y203283D01*
X414229Y203348D01*
X414305Y203415D01*
X414378Y203485D01*
X414448Y203558D01*
X414515Y203634D01*
X414580Y203712D01*
X414642Y203792D01*
X414700Y203875D01*
X414756Y203960D01*
X414808Y204046D01*
X414857Y204135D01*
X414903Y204226D01*
X414945Y204318D01*
X414984Y204411D01*
X415019Y204506D01*
X415051Y204603D01*
X415079Y204700D01*
X415103Y204798D01*
X415124Y204897D01*
X415141Y204997D01*
X415154Y205098D01*
X415163Y205199D01*
X415169Y205300D01*
X415171Y205401D01*
X415171Y209917D01*
X415169Y210036D01*
X415163Y210156D01*
X415153Y210275D01*
X415139Y210393D01*
X415122Y210512D01*
X415100Y210629D01*
X415075Y210746D01*
X415045Y210861D01*
X415012Y210976D01*
X414975Y211090D01*
X414935Y211202D01*
X414890Y211313D01*
X414842Y211422D01*
X414791Y211530D01*
X414736Y211636D01*
X414677Y211740D01*
X414615Y211842D01*
X414550Y211942D01*
X414481Y212040D01*
X414409Y212136D01*
X414334Y212229D01*
X414257Y212319D01*
X414176Y212407D01*
X414092Y212492D01*
X414005Y212574D01*
X413916Y212654D01*
X413824Y212730D01*
X413730Y212804D01*
X413633Y212874D01*
X413535Y212941D01*
X413434Y213005D01*
X413330Y213065D01*
X413225Y213122D01*
X413118Y213175D01*
X413010Y213225D01*
X412900Y213271D01*
X412788Y213313D01*
X412675Y213352D01*
X412561Y213387D01*
X412446Y213418D01*
X412329Y213446D01*
X412212Y213469D01*
X412095Y213489D01*
X411976Y213505D01*
X411857Y213517D01*
X411738Y213525D01*
X411619Y213529D01*
X411499Y213529D01*
X411380Y213525D01*
X411261Y213517D01*
X411142Y213505D01*
X411023Y213489D01*
X410906Y213469D01*
X410789Y213446D01*
X410672Y213418D01*
X410557Y213387D01*
X410443Y213352D01*
X410330Y213313D01*
X410218Y213271D01*
X410108Y213225D01*
X410000Y213175D01*
X409893Y213122D01*
X409788Y213065D01*
X409684Y213005D01*
X409583Y212941D01*
X409485Y212874D01*
X409388Y212804D01*
X409294Y212730D01*
X409202Y212654D01*
X409113Y212574D01*
X409026Y212492D01*
X408942Y212407D01*
X408861Y212319D01*
X408784Y212229D01*
X408709Y212136D01*
X408637Y212040D01*
X408568Y211942D01*
X408503Y211842D01*
X408441Y211740D01*
X408382Y211636D01*
X408327Y211530D01*
X408276Y211422D01*
X408228Y211313D01*
X408183Y211202D01*
X408143Y211090D01*
X408106Y210976D01*
X408073Y210861D01*
X408043Y210746D01*
X408018Y210629D01*
X407996Y210512D01*
X407979Y210393D01*
X407965Y210275D01*
X407955Y210156D01*
X407949Y210036D01*
X407947Y209917D01*
X407947Y208111D01*
X415171Y208111D01*
X399300Y209014D02*
X394784Y207208D01*
X399300Y209014D02*
X399388Y209051D01*
X399474Y209092D01*
X399559Y209136D01*
X399642Y209184D01*
X399722Y209235D01*
X399801Y209289D01*
X399877Y209347D01*
X399951Y209407D01*
X400023Y209471D01*
X400091Y209537D01*
X400157Y209607D01*
X400220Y209678D01*
X400281Y209753D01*
X400338Y209829D01*
X400391Y209908D01*
X400442Y209989D01*
X400489Y210072D01*
X400533Y210157D01*
X400573Y210244D01*
X400610Y210332D01*
X400643Y210422D01*
X400673Y210513D01*
X400698Y210605D01*
X400720Y210698D01*
X400738Y210792D01*
X400753Y210886D01*
X400763Y210981D01*
X400769Y211077D01*
X400772Y211172D01*
X400771Y211268D01*
X400765Y211363D01*
X400756Y211459D01*
X400743Y211553D01*
X400727Y211647D01*
X400706Y211741D01*
X400681Y211833D01*
X400653Y211924D01*
X400621Y212014D01*
X400586Y212103D01*
X400547Y212190D01*
X400504Y212276D01*
X400458Y212360D01*
X400408Y212441D01*
X400356Y212521D01*
X400300Y212599D01*
X400240Y212674D01*
X400178Y212746D01*
X400113Y212816D01*
X400045Y212884D01*
X399975Y212948D01*
X399902Y213010D01*
X399826Y213068D01*
X399748Y213124D01*
X399668Y213176D01*
X399586Y213225D01*
X399502Y213270D01*
X399416Y213312D01*
X399329Y213351D01*
X399240Y213386D01*
X399149Y213417D01*
X399058Y213444D01*
X398965Y213468D01*
X398872Y213488D01*
X398778Y213504D01*
X398683Y213516D01*
X398588Y213525D01*
X398492Y213529D01*
X398397Y213530D01*
X398150Y213523D01*
X397904Y213511D01*
X397658Y213493D01*
X397412Y213468D01*
X397168Y213438D01*
X396924Y213402D01*
X396681Y213361D01*
X396439Y213313D01*
X396198Y213259D01*
X395959Y213200D01*
X395721Y213135D01*
X395485Y213064D01*
X395250Y212988D01*
X395017Y212906D01*
X394787Y212818D01*
X394559Y212725D01*
X394332Y212627D01*
X394784Y207207D02*
X394696Y207170D01*
X394610Y207129D01*
X394525Y207085D01*
X394442Y207037D01*
X394362Y206986D01*
X394283Y206932D01*
X394207Y206874D01*
X394133Y206814D01*
X394061Y206750D01*
X393993Y206684D01*
X393927Y206614D01*
X393864Y206543D01*
X393803Y206468D01*
X393746Y206392D01*
X393693Y206313D01*
X393642Y206232D01*
X393595Y206149D01*
X393551Y206064D01*
X393511Y205977D01*
X393474Y205889D01*
X393441Y205799D01*
X393411Y205708D01*
X393386Y205616D01*
X393364Y205523D01*
X393346Y205429D01*
X393331Y205335D01*
X393321Y205240D01*
X393315Y205144D01*
X393312Y205049D01*
X393313Y204953D01*
X393319Y204858D01*
X393328Y204762D01*
X393341Y204668D01*
X393357Y204574D01*
X393378Y204480D01*
X393403Y204388D01*
X393431Y204297D01*
X393463Y204207D01*
X393498Y204118D01*
X393537Y204031D01*
X393580Y203945D01*
X393626Y203861D01*
X393676Y203780D01*
X393728Y203700D01*
X393784Y203622D01*
X393844Y203547D01*
X393906Y203475D01*
X393971Y203405D01*
X394039Y203337D01*
X394109Y203273D01*
X394182Y203211D01*
X394258Y203153D01*
X394336Y203097D01*
X394416Y203045D01*
X394498Y202996D01*
X394582Y202951D01*
X394668Y202909D01*
X394755Y202870D01*
X394844Y202835D01*
X394935Y202804D01*
X395026Y202777D01*
X395119Y202753D01*
X395212Y202733D01*
X395306Y202717D01*
X395401Y202705D01*
X395496Y202696D01*
X395592Y202692D01*
X395687Y202691D01*
X395688Y202692D02*
X396050Y202701D01*
X396412Y202719D01*
X396773Y202746D01*
X397133Y202781D01*
X397493Y202824D01*
X397852Y202876D01*
X398209Y202937D01*
X398564Y203006D01*
X398918Y203083D01*
X399270Y203169D01*
X399620Y203263D01*
X399968Y203366D01*
X400313Y203476D01*
X400655Y203595D01*
X386433Y202692D02*
X386433Y213529D01*
X386885Y218045D02*
X386885Y218948D01*
X385982Y218948D01*
X385982Y218045D01*
X386885Y218045D01*
X376841Y202692D02*
X372326Y202692D01*
X376841Y202692D02*
X376942Y202694D01*
X377043Y202700D01*
X377144Y202709D01*
X377245Y202722D01*
X377345Y202739D01*
X377444Y202760D01*
X377542Y202784D01*
X377639Y202812D01*
X377736Y202844D01*
X377831Y202879D01*
X377924Y202918D01*
X378016Y202960D01*
X378107Y203006D01*
X378196Y203055D01*
X378282Y203107D01*
X378367Y203163D01*
X378450Y203221D01*
X378530Y203283D01*
X378608Y203348D01*
X378684Y203415D01*
X378757Y203485D01*
X378827Y203558D01*
X378894Y203634D01*
X378959Y203712D01*
X379021Y203792D01*
X379079Y203875D01*
X379135Y203960D01*
X379187Y204046D01*
X379236Y204135D01*
X379282Y204226D01*
X379324Y204318D01*
X379363Y204411D01*
X379398Y204506D01*
X379430Y204603D01*
X379458Y204700D01*
X379482Y204798D01*
X379503Y204897D01*
X379520Y204997D01*
X379533Y205098D01*
X379542Y205199D01*
X379548Y205300D01*
X379550Y205401D01*
X379550Y210820D01*
X379548Y210921D01*
X379542Y211022D01*
X379533Y211123D01*
X379520Y211224D01*
X379503Y211324D01*
X379482Y211423D01*
X379458Y211521D01*
X379430Y211618D01*
X379398Y211715D01*
X379363Y211810D01*
X379324Y211903D01*
X379282Y211995D01*
X379236Y212086D01*
X379187Y212175D01*
X379135Y212261D01*
X379079Y212346D01*
X379021Y212429D01*
X378959Y212509D01*
X378894Y212587D01*
X378827Y212663D01*
X378757Y212736D01*
X378684Y212806D01*
X378608Y212873D01*
X378530Y212938D01*
X378450Y213000D01*
X378367Y213058D01*
X378282Y213114D01*
X378196Y213166D01*
X378107Y213215D01*
X378016Y213261D01*
X377924Y213303D01*
X377831Y213342D01*
X377736Y213377D01*
X377639Y213409D01*
X377542Y213437D01*
X377444Y213461D01*
X377345Y213482D01*
X377245Y213499D01*
X377144Y213512D01*
X377043Y213521D01*
X376942Y213527D01*
X376841Y213529D01*
X372326Y213529D01*
X372326Y199983D01*
X372328Y199882D01*
X372334Y199781D01*
X372343Y199680D01*
X372356Y199579D01*
X372373Y199479D01*
X372394Y199380D01*
X372418Y199282D01*
X372446Y199185D01*
X372478Y199088D01*
X372513Y198993D01*
X372552Y198900D01*
X372594Y198808D01*
X372640Y198717D01*
X372689Y198629D01*
X372741Y198542D01*
X372797Y198457D01*
X372855Y198374D01*
X372917Y198294D01*
X372982Y198216D01*
X373049Y198140D01*
X373119Y198067D01*
X373192Y197997D01*
X373268Y197930D01*
X373346Y197865D01*
X373426Y197803D01*
X373509Y197745D01*
X373594Y197689D01*
X373681Y197637D01*
X373769Y197588D01*
X373860Y197542D01*
X373952Y197500D01*
X374045Y197461D01*
X374140Y197426D01*
X374237Y197394D01*
X374334Y197366D01*
X374432Y197342D01*
X374531Y197321D01*
X374631Y197304D01*
X374732Y197291D01*
X374833Y197282D01*
X374934Y197276D01*
X375035Y197274D01*
X375035Y197273D02*
X378647Y197273D01*
X363803Y202692D02*
X363803Y213529D01*
X359288Y213529D01*
X359184Y213527D01*
X359081Y213521D01*
X358977Y213511D01*
X358874Y213497D01*
X358772Y213479D01*
X358671Y213458D01*
X358570Y213432D01*
X358471Y213403D01*
X358372Y213370D01*
X358275Y213333D01*
X358180Y213292D01*
X358086Y213248D01*
X357994Y213200D01*
X357904Y213149D01*
X357815Y213094D01*
X357729Y213036D01*
X357646Y212974D01*
X357564Y212910D01*
X357486Y212842D01*
X357410Y212772D01*
X357336Y212699D01*
X357266Y212622D01*
X357198Y212544D01*
X357134Y212462D01*
X357072Y212379D01*
X357014Y212293D01*
X356959Y212204D01*
X356908Y212114D01*
X356860Y212022D01*
X356816Y211928D01*
X356775Y211833D01*
X356738Y211736D01*
X356705Y211637D01*
X356676Y211538D01*
X356650Y211437D01*
X356629Y211336D01*
X356611Y211234D01*
X356597Y211131D01*
X356587Y211027D01*
X356581Y210924D01*
X356579Y210820D01*
X356578Y210820D02*
X356578Y202692D01*
X346019Y202692D02*
X341503Y202692D01*
X346019Y202692D02*
X346120Y202694D01*
X346221Y202700D01*
X346322Y202709D01*
X346423Y202722D01*
X346523Y202739D01*
X346622Y202760D01*
X346720Y202784D01*
X346817Y202812D01*
X346914Y202844D01*
X347009Y202879D01*
X347102Y202918D01*
X347194Y202960D01*
X347285Y203006D01*
X347374Y203055D01*
X347460Y203107D01*
X347545Y203163D01*
X347628Y203221D01*
X347708Y203283D01*
X347786Y203348D01*
X347862Y203415D01*
X347935Y203485D01*
X348005Y203558D01*
X348072Y203634D01*
X348137Y203712D01*
X348199Y203792D01*
X348257Y203875D01*
X348313Y203960D01*
X348365Y204046D01*
X348414Y204135D01*
X348460Y204226D01*
X348502Y204318D01*
X348541Y204411D01*
X348576Y204506D01*
X348608Y204603D01*
X348636Y204700D01*
X348660Y204798D01*
X348681Y204897D01*
X348698Y204997D01*
X348711Y205098D01*
X348720Y205199D01*
X348726Y205300D01*
X348728Y205401D01*
X348728Y209917D01*
X348726Y210036D01*
X348720Y210156D01*
X348710Y210275D01*
X348696Y210393D01*
X348679Y210512D01*
X348657Y210629D01*
X348632Y210746D01*
X348602Y210861D01*
X348569Y210976D01*
X348532Y211090D01*
X348492Y211202D01*
X348447Y211313D01*
X348399Y211422D01*
X348348Y211530D01*
X348293Y211636D01*
X348234Y211740D01*
X348172Y211842D01*
X348107Y211942D01*
X348038Y212040D01*
X347966Y212136D01*
X347891Y212229D01*
X347814Y212319D01*
X347733Y212407D01*
X347649Y212492D01*
X347562Y212574D01*
X347473Y212654D01*
X347381Y212730D01*
X347287Y212804D01*
X347190Y212874D01*
X347092Y212941D01*
X346991Y213005D01*
X346887Y213065D01*
X346782Y213122D01*
X346675Y213175D01*
X346567Y213225D01*
X346457Y213271D01*
X346345Y213313D01*
X346232Y213352D01*
X346118Y213387D01*
X346003Y213418D01*
X345886Y213446D01*
X345769Y213469D01*
X345652Y213489D01*
X345533Y213505D01*
X345414Y213517D01*
X345295Y213525D01*
X345176Y213529D01*
X345056Y213529D01*
X344937Y213525D01*
X344818Y213517D01*
X344699Y213505D01*
X344580Y213489D01*
X344463Y213469D01*
X344346Y213446D01*
X344229Y213418D01*
X344114Y213387D01*
X344000Y213352D01*
X343887Y213313D01*
X343775Y213271D01*
X343665Y213225D01*
X343557Y213175D01*
X343450Y213122D01*
X343345Y213065D01*
X343241Y213005D01*
X343140Y212941D01*
X343042Y212874D01*
X342945Y212804D01*
X342851Y212730D01*
X342759Y212654D01*
X342670Y212574D01*
X342583Y212492D01*
X342499Y212407D01*
X342418Y212319D01*
X342341Y212229D01*
X342266Y212136D01*
X342194Y212040D01*
X342125Y211942D01*
X342060Y211842D01*
X341998Y211740D01*
X341939Y211636D01*
X341884Y211530D01*
X341833Y211422D01*
X341785Y211313D01*
X341740Y211202D01*
X341700Y211090D01*
X341663Y210976D01*
X341630Y210861D01*
X341600Y210746D01*
X341575Y210629D01*
X341553Y210512D01*
X341536Y210393D01*
X341522Y210275D01*
X341512Y210156D01*
X341506Y210036D01*
X341504Y209917D01*
X341503Y209917D02*
X341503Y208111D01*
X348728Y208111D01*
X327099Y202692D02*
X327099Y218948D01*
X327099Y202692D02*
X331615Y202692D01*
X331716Y202694D01*
X331817Y202700D01*
X331918Y202709D01*
X332019Y202722D01*
X332119Y202739D01*
X332218Y202760D01*
X332316Y202784D01*
X332413Y202812D01*
X332510Y202844D01*
X332605Y202879D01*
X332698Y202918D01*
X332790Y202960D01*
X332881Y203006D01*
X332970Y203055D01*
X333056Y203107D01*
X333141Y203163D01*
X333224Y203221D01*
X333304Y203283D01*
X333382Y203348D01*
X333458Y203415D01*
X333531Y203485D01*
X333601Y203558D01*
X333668Y203634D01*
X333733Y203712D01*
X333795Y203792D01*
X333853Y203875D01*
X333909Y203960D01*
X333961Y204046D01*
X334010Y204135D01*
X334056Y204226D01*
X334098Y204318D01*
X334137Y204411D01*
X334172Y204506D01*
X334204Y204603D01*
X334232Y204700D01*
X334256Y204798D01*
X334277Y204897D01*
X334294Y204997D01*
X334307Y205098D01*
X334316Y205199D01*
X334322Y205300D01*
X334324Y205401D01*
X334324Y210820D01*
X334322Y210921D01*
X334316Y211022D01*
X334307Y211123D01*
X334294Y211224D01*
X334277Y211324D01*
X334256Y211423D01*
X334232Y211521D01*
X334204Y211618D01*
X334172Y211715D01*
X334137Y211810D01*
X334098Y211903D01*
X334056Y211995D01*
X334010Y212086D01*
X333961Y212175D01*
X333909Y212261D01*
X333853Y212346D01*
X333795Y212429D01*
X333733Y212509D01*
X333668Y212587D01*
X333601Y212663D01*
X333531Y212736D01*
X333458Y212806D01*
X333382Y212873D01*
X333304Y212938D01*
X333224Y213000D01*
X333141Y213058D01*
X333056Y213114D01*
X332970Y213166D01*
X332881Y213215D01*
X332790Y213261D01*
X332698Y213303D01*
X332605Y213342D01*
X332510Y213377D01*
X332413Y213409D01*
X332316Y213437D01*
X332218Y213461D01*
X332119Y213482D01*
X332019Y213499D01*
X331918Y213512D01*
X331817Y213521D01*
X331716Y213527D01*
X331615Y213529D01*
X327099Y213529D01*
X309530Y218948D02*
X309530Y202692D01*
X305015Y202692D01*
X304911Y202694D01*
X304808Y202700D01*
X304704Y202710D01*
X304601Y202724D01*
X304499Y202742D01*
X304398Y202763D01*
X304297Y202789D01*
X304198Y202818D01*
X304099Y202851D01*
X304002Y202888D01*
X303907Y202929D01*
X303813Y202973D01*
X303721Y203021D01*
X303631Y203072D01*
X303542Y203127D01*
X303456Y203185D01*
X303373Y203247D01*
X303291Y203311D01*
X303213Y203379D01*
X303137Y203449D01*
X303063Y203522D01*
X302993Y203599D01*
X302925Y203677D01*
X302861Y203759D01*
X302799Y203842D01*
X302741Y203928D01*
X302686Y204017D01*
X302635Y204107D01*
X302587Y204199D01*
X302543Y204293D01*
X302502Y204388D01*
X302465Y204485D01*
X302432Y204584D01*
X302403Y204683D01*
X302377Y204784D01*
X302356Y204885D01*
X302338Y204987D01*
X302324Y205090D01*
X302314Y205194D01*
X302308Y205297D01*
X302306Y205401D01*
X302305Y205401D02*
X302305Y210820D01*
X302306Y210820D02*
X302308Y210921D01*
X302314Y211022D01*
X302323Y211123D01*
X302336Y211224D01*
X302353Y211324D01*
X302374Y211423D01*
X302398Y211521D01*
X302426Y211618D01*
X302458Y211715D01*
X302493Y211810D01*
X302532Y211903D01*
X302574Y211995D01*
X302620Y212086D01*
X302669Y212175D01*
X302721Y212261D01*
X302777Y212346D01*
X302835Y212429D01*
X302897Y212509D01*
X302962Y212587D01*
X303029Y212663D01*
X303099Y212736D01*
X303172Y212806D01*
X303248Y212873D01*
X303326Y212938D01*
X303406Y213000D01*
X303489Y213058D01*
X303574Y213114D01*
X303661Y213166D01*
X303749Y213215D01*
X303840Y213261D01*
X303932Y213303D01*
X304025Y213342D01*
X304120Y213377D01*
X304217Y213409D01*
X304314Y213437D01*
X304412Y213461D01*
X304511Y213482D01*
X304611Y213499D01*
X304712Y213512D01*
X304813Y213521D01*
X304914Y213527D01*
X305015Y213529D01*
X309530Y213529D01*
X295685Y197273D02*
X293879Y197273D01*
X288460Y213529D01*
X295685Y213529D02*
X292072Y202692D01*
D12*
X497109Y168656D02*
X501173Y186944D01*
X493045Y180848D02*
X497109Y168656D01*
X488981Y168656D02*
X493045Y180848D01*
X484917Y186944D02*
X488981Y168656D01*
X476497Y168656D02*
X476497Y186944D01*
X476497Y178816D02*
X466337Y178816D01*
X466337Y186944D02*
X466337Y168656D01*
X457341Y173736D02*
X457341Y181864D01*
X457339Y182005D01*
X457333Y182146D01*
X457323Y182287D01*
X457310Y182428D01*
X457292Y182568D01*
X457270Y182707D01*
X457245Y182846D01*
X457216Y182985D01*
X457183Y183122D01*
X457146Y183258D01*
X457105Y183393D01*
X457061Y183528D01*
X457013Y183660D01*
X456961Y183792D01*
X456906Y183922D01*
X456847Y184050D01*
X456784Y184177D01*
X456718Y184301D01*
X456649Y184424D01*
X456576Y184545D01*
X456500Y184664D01*
X456420Y184781D01*
X456337Y184895D01*
X456252Y185008D01*
X456163Y185117D01*
X456071Y185225D01*
X455976Y185329D01*
X455878Y185431D01*
X455777Y185530D01*
X455674Y185627D01*
X455568Y185720D01*
X455460Y185810D01*
X455349Y185898D01*
X455236Y185982D01*
X455120Y186063D01*
X455002Y186141D01*
X454882Y186216D01*
X454760Y186287D01*
X454636Y186355D01*
X454510Y186419D01*
X454383Y186480D01*
X454254Y186537D01*
X454123Y186590D01*
X453991Y186640D01*
X453858Y186687D01*
X453723Y186729D01*
X453587Y186768D01*
X453450Y186803D01*
X453313Y186834D01*
X453174Y186861D01*
X453035Y186885D01*
X452895Y186904D01*
X452755Y186920D01*
X452614Y186932D01*
X452473Y186940D01*
X452332Y186944D01*
X452190Y186944D01*
X452049Y186940D01*
X451908Y186932D01*
X451767Y186920D01*
X451627Y186904D01*
X451487Y186885D01*
X451348Y186861D01*
X451209Y186834D01*
X451072Y186803D01*
X450935Y186768D01*
X450799Y186729D01*
X450664Y186687D01*
X450531Y186640D01*
X450399Y186590D01*
X450268Y186537D01*
X450139Y186480D01*
X450012Y186419D01*
X449886Y186355D01*
X449762Y186287D01*
X449640Y186216D01*
X449520Y186141D01*
X449402Y186063D01*
X449286Y185982D01*
X449173Y185898D01*
X449062Y185810D01*
X448954Y185720D01*
X448848Y185627D01*
X448745Y185530D01*
X448644Y185431D01*
X448546Y185329D01*
X448451Y185225D01*
X448359Y185117D01*
X448270Y185008D01*
X448185Y184895D01*
X448102Y184781D01*
X448022Y184664D01*
X447946Y184545D01*
X447873Y184424D01*
X447804Y184301D01*
X447738Y184177D01*
X447675Y184050D01*
X447616Y183922D01*
X447561Y183792D01*
X447509Y183660D01*
X447461Y183528D01*
X447417Y183393D01*
X447376Y183258D01*
X447339Y183122D01*
X447306Y182985D01*
X447277Y182846D01*
X447252Y182707D01*
X447230Y182568D01*
X447212Y182428D01*
X447199Y182287D01*
X447189Y182146D01*
X447183Y182005D01*
X447181Y181864D01*
X447181Y173736D01*
X447183Y173595D01*
X447189Y173454D01*
X447199Y173313D01*
X447212Y173172D01*
X447230Y173032D01*
X447252Y172893D01*
X447277Y172754D01*
X447306Y172615D01*
X447339Y172478D01*
X447376Y172342D01*
X447417Y172207D01*
X447461Y172072D01*
X447509Y171940D01*
X447561Y171808D01*
X447616Y171678D01*
X447675Y171550D01*
X447738Y171423D01*
X447804Y171299D01*
X447873Y171176D01*
X447946Y171055D01*
X448022Y170936D01*
X448102Y170819D01*
X448185Y170705D01*
X448270Y170592D01*
X448359Y170483D01*
X448451Y170375D01*
X448546Y170271D01*
X448644Y170169D01*
X448745Y170070D01*
X448848Y169973D01*
X448954Y169880D01*
X449062Y169790D01*
X449173Y169702D01*
X449286Y169618D01*
X449402Y169537D01*
X449520Y169459D01*
X449640Y169384D01*
X449762Y169313D01*
X449886Y169245D01*
X450012Y169181D01*
X450139Y169120D01*
X450268Y169063D01*
X450399Y169010D01*
X450531Y168960D01*
X450664Y168913D01*
X450799Y168871D01*
X450935Y168832D01*
X451072Y168797D01*
X451209Y168766D01*
X451348Y168739D01*
X451487Y168715D01*
X451627Y168696D01*
X451767Y168680D01*
X451908Y168668D01*
X452049Y168660D01*
X452190Y168656D01*
X452332Y168656D01*
X452473Y168660D01*
X452614Y168668D01*
X452755Y168680D01*
X452895Y168696D01*
X453035Y168715D01*
X453174Y168739D01*
X453313Y168766D01*
X453450Y168797D01*
X453587Y168832D01*
X453723Y168871D01*
X453858Y168913D01*
X453991Y168960D01*
X454123Y169010D01*
X454254Y169063D01*
X454383Y169120D01*
X454510Y169181D01*
X454636Y169245D01*
X454760Y169313D01*
X454882Y169384D01*
X455002Y169459D01*
X455120Y169537D01*
X455236Y169618D01*
X455349Y169702D01*
X455460Y169790D01*
X455568Y169880D01*
X455674Y169973D01*
X455777Y170070D01*
X455878Y170169D01*
X455976Y170271D01*
X456071Y170375D01*
X456163Y170483D01*
X456252Y170592D01*
X456337Y170705D01*
X456420Y170819D01*
X456500Y170936D01*
X456576Y171055D01*
X456649Y171176D01*
X456718Y171299D01*
X456784Y171423D01*
X456847Y171550D01*
X456906Y171678D01*
X456961Y171808D01*
X457013Y171940D01*
X457061Y172072D01*
X457105Y172207D01*
X457146Y172342D01*
X457183Y172478D01*
X457216Y172615D01*
X457245Y172754D01*
X457270Y172893D01*
X457292Y173032D01*
X457310Y173172D01*
X457323Y173313D01*
X457333Y173454D01*
X457339Y173595D01*
X457341Y173736D01*
X438132Y168656D02*
X438132Y186944D01*
X438132Y168656D02*
X430004Y168656D01*
X422066Y168656D02*
X413938Y168656D01*
X422066Y168656D02*
X422066Y186944D01*
X413938Y186944D01*
X415970Y178816D02*
X422066Y178816D01*
X401191Y168656D02*
X401066Y168658D01*
X400941Y168664D01*
X400816Y168673D01*
X400692Y168687D01*
X400568Y168704D01*
X400444Y168725D01*
X400322Y168750D01*
X400200Y168779D01*
X400079Y168811D01*
X399959Y168847D01*
X399840Y168887D01*
X399723Y168930D01*
X399607Y168977D01*
X399492Y169028D01*
X399380Y169082D01*
X399268Y169140D01*
X399159Y169200D01*
X399052Y169265D01*
X398946Y169332D01*
X398843Y169403D01*
X398742Y169477D01*
X398643Y169554D01*
X398547Y169634D01*
X398453Y169717D01*
X398362Y169802D01*
X398273Y169891D01*
X398188Y169982D01*
X398105Y170076D01*
X398025Y170172D01*
X397948Y170271D01*
X397874Y170372D01*
X397803Y170475D01*
X397736Y170581D01*
X397671Y170688D01*
X397611Y170797D01*
X397553Y170909D01*
X397499Y171021D01*
X397448Y171136D01*
X397401Y171252D01*
X397358Y171369D01*
X397318Y171488D01*
X397282Y171608D01*
X397250Y171729D01*
X397221Y171851D01*
X397196Y171973D01*
X397175Y172097D01*
X397158Y172221D01*
X397144Y172345D01*
X397135Y172470D01*
X397129Y172595D01*
X397127Y172720D01*
X401191Y168656D02*
X401396Y168658D01*
X401602Y168666D01*
X401807Y168678D01*
X402011Y168695D01*
X402216Y168717D01*
X402419Y168744D01*
X402622Y168776D01*
X402824Y168813D01*
X403025Y168854D01*
X403226Y168901D01*
X403425Y168952D01*
X403622Y169007D01*
X403818Y169068D01*
X404013Y169133D01*
X404206Y169203D01*
X404398Y169277D01*
X404587Y169356D01*
X404775Y169440D01*
X404961Y169528D01*
X405144Y169620D01*
X405325Y169717D01*
X405504Y169818D01*
X405681Y169923D01*
X405854Y170033D01*
X406025Y170147D01*
X406194Y170264D01*
X406359Y170386D01*
X406522Y170512D01*
X406681Y170641D01*
X406838Y170774D01*
X406991Y170911D01*
X407140Y171052D01*
X407287Y171196D01*
X406779Y182880D02*
X406777Y183005D01*
X406771Y183130D01*
X406762Y183255D01*
X406748Y183379D01*
X406731Y183503D01*
X406710Y183627D01*
X406685Y183749D01*
X406656Y183871D01*
X406624Y183992D01*
X406588Y184112D01*
X406548Y184231D01*
X406505Y184348D01*
X406458Y184464D01*
X406407Y184579D01*
X406353Y184691D01*
X406295Y184803D01*
X406235Y184912D01*
X406170Y185019D01*
X406103Y185125D01*
X406032Y185228D01*
X405958Y185329D01*
X405881Y185428D01*
X405801Y185524D01*
X405718Y185618D01*
X405633Y185709D01*
X405544Y185798D01*
X405453Y185883D01*
X405359Y185966D01*
X405263Y186046D01*
X405164Y186123D01*
X405063Y186197D01*
X404960Y186268D01*
X404854Y186335D01*
X404747Y186400D01*
X404638Y186460D01*
X404526Y186518D01*
X404414Y186572D01*
X404299Y186623D01*
X404183Y186670D01*
X404066Y186713D01*
X403947Y186753D01*
X403827Y186789D01*
X403706Y186821D01*
X403584Y186850D01*
X403462Y186875D01*
X403338Y186896D01*
X403214Y186913D01*
X403090Y186927D01*
X402965Y186936D01*
X402840Y186942D01*
X402715Y186944D01*
X402533Y186942D01*
X402352Y186935D01*
X402171Y186925D01*
X401990Y186909D01*
X401809Y186890D01*
X401629Y186866D01*
X401450Y186838D01*
X401271Y186806D01*
X401093Y186769D01*
X400916Y186729D01*
X400740Y186684D01*
X400565Y186634D01*
X400392Y186581D01*
X400219Y186524D01*
X400049Y186462D01*
X399879Y186397D01*
X399711Y186327D01*
X399545Y186253D01*
X399381Y186176D01*
X399219Y186095D01*
X399058Y186009D01*
X398900Y185920D01*
X398744Y185828D01*
X398590Y185731D01*
X398439Y185631D01*
X398290Y185527D01*
X398143Y185420D01*
X404748Y179324D02*
X404855Y179389D01*
X404961Y179458D01*
X405064Y179530D01*
X405165Y179605D01*
X405264Y179684D01*
X405361Y179765D01*
X405455Y179849D01*
X405546Y179936D01*
X405634Y180026D01*
X405720Y180118D01*
X405803Y180213D01*
X405883Y180311D01*
X405960Y180410D01*
X406034Y180513D01*
X406104Y180617D01*
X406172Y180723D01*
X406236Y180832D01*
X406297Y180942D01*
X406354Y181055D01*
X406408Y181168D01*
X406459Y181284D01*
X406506Y181401D01*
X406549Y181519D01*
X406589Y181639D01*
X406625Y181760D01*
X406657Y181882D01*
X406686Y182004D01*
X406711Y182128D01*
X406732Y182252D01*
X406749Y182377D01*
X406763Y182502D01*
X406772Y182628D01*
X406778Y182754D01*
X406780Y182880D01*
X399159Y176276D02*
X399052Y176211D01*
X398946Y176142D01*
X398843Y176070D01*
X398742Y175995D01*
X398643Y175916D01*
X398546Y175835D01*
X398452Y175751D01*
X398361Y175664D01*
X398273Y175574D01*
X398187Y175482D01*
X398104Y175387D01*
X398024Y175289D01*
X397947Y175190D01*
X397873Y175087D01*
X397803Y174983D01*
X397735Y174877D01*
X397671Y174768D01*
X397610Y174658D01*
X397553Y174545D01*
X397499Y174432D01*
X397448Y174316D01*
X397401Y174199D01*
X397358Y174081D01*
X397318Y173961D01*
X397282Y173840D01*
X397250Y173718D01*
X397221Y173596D01*
X397196Y173472D01*
X397175Y173348D01*
X397158Y173223D01*
X397144Y173098D01*
X397135Y172972D01*
X397129Y172846D01*
X397127Y172720D01*
X399159Y176276D02*
X404747Y179324D01*
X389367Y181864D02*
X389367Y173736D01*
X389367Y181864D02*
X389365Y182005D01*
X389359Y182146D01*
X389349Y182287D01*
X389336Y182428D01*
X389318Y182568D01*
X389296Y182707D01*
X389271Y182846D01*
X389242Y182985D01*
X389209Y183122D01*
X389172Y183258D01*
X389131Y183393D01*
X389087Y183528D01*
X389039Y183660D01*
X388987Y183792D01*
X388932Y183922D01*
X388873Y184050D01*
X388810Y184177D01*
X388744Y184301D01*
X388675Y184424D01*
X388602Y184545D01*
X388526Y184664D01*
X388446Y184781D01*
X388363Y184895D01*
X388278Y185008D01*
X388189Y185117D01*
X388097Y185225D01*
X388002Y185329D01*
X387904Y185431D01*
X387803Y185530D01*
X387700Y185627D01*
X387594Y185720D01*
X387486Y185810D01*
X387375Y185898D01*
X387262Y185982D01*
X387146Y186063D01*
X387028Y186141D01*
X386908Y186216D01*
X386786Y186287D01*
X386662Y186355D01*
X386536Y186419D01*
X386409Y186480D01*
X386280Y186537D01*
X386149Y186590D01*
X386017Y186640D01*
X385884Y186687D01*
X385749Y186729D01*
X385613Y186768D01*
X385476Y186803D01*
X385339Y186834D01*
X385200Y186861D01*
X385061Y186885D01*
X384921Y186904D01*
X384781Y186920D01*
X384640Y186932D01*
X384499Y186940D01*
X384358Y186944D01*
X384216Y186944D01*
X384075Y186940D01*
X383934Y186932D01*
X383793Y186920D01*
X383653Y186904D01*
X383513Y186885D01*
X383374Y186861D01*
X383235Y186834D01*
X383098Y186803D01*
X382961Y186768D01*
X382825Y186729D01*
X382690Y186687D01*
X382557Y186640D01*
X382425Y186590D01*
X382294Y186537D01*
X382165Y186480D01*
X382038Y186419D01*
X381912Y186355D01*
X381788Y186287D01*
X381666Y186216D01*
X381546Y186141D01*
X381428Y186063D01*
X381312Y185982D01*
X381199Y185898D01*
X381088Y185810D01*
X380980Y185720D01*
X380874Y185627D01*
X380771Y185530D01*
X380670Y185431D01*
X380572Y185329D01*
X380477Y185225D01*
X380385Y185117D01*
X380296Y185008D01*
X380211Y184895D01*
X380128Y184781D01*
X380048Y184664D01*
X379972Y184545D01*
X379899Y184424D01*
X379830Y184301D01*
X379764Y184177D01*
X379701Y184050D01*
X379642Y183922D01*
X379587Y183792D01*
X379535Y183660D01*
X379487Y183528D01*
X379443Y183393D01*
X379402Y183258D01*
X379365Y183122D01*
X379332Y182985D01*
X379303Y182846D01*
X379278Y182707D01*
X379256Y182568D01*
X379238Y182428D01*
X379225Y182287D01*
X379215Y182146D01*
X379209Y182005D01*
X379207Y181864D01*
X379207Y173736D01*
X379209Y173595D01*
X379215Y173454D01*
X379225Y173313D01*
X379238Y173172D01*
X379256Y173032D01*
X379278Y172893D01*
X379303Y172754D01*
X379332Y172615D01*
X379365Y172478D01*
X379402Y172342D01*
X379443Y172207D01*
X379487Y172072D01*
X379535Y171940D01*
X379587Y171808D01*
X379642Y171678D01*
X379701Y171550D01*
X379764Y171423D01*
X379830Y171299D01*
X379899Y171176D01*
X379972Y171055D01*
X380048Y170936D01*
X380128Y170819D01*
X380211Y170705D01*
X380296Y170592D01*
X380385Y170483D01*
X380477Y170375D01*
X380572Y170271D01*
X380670Y170169D01*
X380771Y170070D01*
X380874Y169973D01*
X380980Y169880D01*
X381088Y169790D01*
X381199Y169702D01*
X381312Y169618D01*
X381428Y169537D01*
X381546Y169459D01*
X381666Y169384D01*
X381788Y169313D01*
X381912Y169245D01*
X382038Y169181D01*
X382165Y169120D01*
X382294Y169063D01*
X382425Y169010D01*
X382557Y168960D01*
X382690Y168913D01*
X382825Y168871D01*
X382961Y168832D01*
X383098Y168797D01*
X383235Y168766D01*
X383374Y168739D01*
X383513Y168715D01*
X383653Y168696D01*
X383793Y168680D01*
X383934Y168668D01*
X384075Y168660D01*
X384216Y168656D01*
X384358Y168656D01*
X384499Y168660D01*
X384640Y168668D01*
X384781Y168680D01*
X384921Y168696D01*
X385061Y168715D01*
X385200Y168739D01*
X385339Y168766D01*
X385476Y168797D01*
X385613Y168832D01*
X385749Y168871D01*
X385884Y168913D01*
X386017Y168960D01*
X386149Y169010D01*
X386280Y169063D01*
X386409Y169120D01*
X386536Y169181D01*
X386662Y169245D01*
X386786Y169313D01*
X386908Y169384D01*
X387028Y169459D01*
X387146Y169537D01*
X387262Y169618D01*
X387375Y169702D01*
X387486Y169790D01*
X387594Y169880D01*
X387700Y169973D01*
X387803Y170070D01*
X387904Y170169D01*
X388002Y170271D01*
X388097Y170375D01*
X388189Y170483D01*
X388278Y170592D01*
X388363Y170705D01*
X388446Y170819D01*
X388526Y170936D01*
X388602Y171055D01*
X388675Y171176D01*
X388744Y171299D01*
X388810Y171423D01*
X388873Y171550D01*
X388932Y171678D01*
X388987Y171808D01*
X389039Y171940D01*
X389087Y172072D01*
X389131Y172207D01*
X389172Y172342D01*
X389209Y172478D01*
X389242Y172615D01*
X389271Y172754D01*
X389296Y172893D01*
X389318Y173032D01*
X389336Y173172D01*
X389349Y173313D01*
X389359Y173454D01*
X389365Y173595D01*
X389367Y173736D01*
X369991Y168656D02*
X369991Y186944D01*
X363895Y176784D01*
X357799Y186944D01*
X357799Y168656D01*
X347913Y168656D02*
X339785Y168656D01*
X347913Y168656D02*
X347913Y186944D01*
X339785Y186944D01*
X341817Y178816D02*
X347913Y178816D01*
X318624Y168656D02*
X314560Y168656D01*
X318624Y168656D02*
X318749Y168658D01*
X318874Y168664D01*
X318999Y168673D01*
X319123Y168687D01*
X319247Y168704D01*
X319371Y168725D01*
X319493Y168750D01*
X319615Y168779D01*
X319736Y168811D01*
X319856Y168847D01*
X319975Y168887D01*
X320092Y168930D01*
X320208Y168977D01*
X320323Y169028D01*
X320435Y169082D01*
X320547Y169140D01*
X320656Y169200D01*
X320763Y169265D01*
X320869Y169332D01*
X320972Y169403D01*
X321073Y169477D01*
X321172Y169554D01*
X321268Y169634D01*
X321362Y169717D01*
X321453Y169802D01*
X321542Y169891D01*
X321627Y169982D01*
X321710Y170076D01*
X321790Y170172D01*
X321867Y170271D01*
X321941Y170372D01*
X322012Y170475D01*
X322079Y170581D01*
X322144Y170688D01*
X322204Y170797D01*
X322262Y170909D01*
X322316Y171021D01*
X322367Y171136D01*
X322414Y171252D01*
X322457Y171369D01*
X322497Y171488D01*
X322533Y171608D01*
X322565Y171729D01*
X322594Y171851D01*
X322619Y171973D01*
X322640Y172097D01*
X322657Y172221D01*
X322671Y172345D01*
X322680Y172470D01*
X322686Y172595D01*
X322688Y172720D01*
X322688Y182880D01*
X322686Y183005D01*
X322680Y183130D01*
X322671Y183255D01*
X322657Y183379D01*
X322640Y183503D01*
X322619Y183627D01*
X322594Y183749D01*
X322565Y183871D01*
X322533Y183992D01*
X322497Y184112D01*
X322457Y184231D01*
X322414Y184348D01*
X322367Y184464D01*
X322316Y184579D01*
X322262Y184691D01*
X322204Y184803D01*
X322144Y184912D01*
X322079Y185019D01*
X322012Y185125D01*
X321941Y185228D01*
X321867Y185329D01*
X321790Y185428D01*
X321710Y185524D01*
X321627Y185618D01*
X321542Y185709D01*
X321453Y185798D01*
X321362Y185883D01*
X321268Y185966D01*
X321172Y186046D01*
X321073Y186123D01*
X320972Y186197D01*
X320869Y186268D01*
X320763Y186335D01*
X320656Y186400D01*
X320547Y186460D01*
X320435Y186518D01*
X320323Y186572D01*
X320208Y186623D01*
X320092Y186670D01*
X319975Y186713D01*
X319856Y186753D01*
X319736Y186789D01*
X319615Y186821D01*
X319493Y186850D01*
X319371Y186875D01*
X319247Y186896D01*
X319123Y186913D01*
X318999Y186927D01*
X318874Y186936D01*
X318749Y186942D01*
X318624Y186944D01*
X314560Y186944D01*
X305808Y186944D02*
X305808Y168656D01*
X307840Y168656D02*
X303776Y168656D01*
X303776Y186944D02*
X307840Y186944D01*
X295292Y186944D02*
X295292Y168656D01*
X295292Y186944D02*
X290212Y186944D01*
X290071Y186942D01*
X289930Y186936D01*
X289789Y186926D01*
X289648Y186913D01*
X289508Y186895D01*
X289369Y186873D01*
X289230Y186848D01*
X289091Y186819D01*
X288954Y186786D01*
X288818Y186749D01*
X288683Y186708D01*
X288548Y186664D01*
X288416Y186616D01*
X288284Y186564D01*
X288154Y186509D01*
X288026Y186450D01*
X287899Y186387D01*
X287775Y186321D01*
X287652Y186252D01*
X287531Y186179D01*
X287412Y186103D01*
X287295Y186023D01*
X287181Y185940D01*
X287068Y185855D01*
X286959Y185766D01*
X286851Y185674D01*
X286747Y185579D01*
X286645Y185481D01*
X286546Y185380D01*
X286449Y185277D01*
X286356Y185171D01*
X286266Y185063D01*
X286178Y184952D01*
X286094Y184839D01*
X286013Y184723D01*
X285935Y184605D01*
X285860Y184485D01*
X285789Y184363D01*
X285721Y184239D01*
X285657Y184113D01*
X285596Y183986D01*
X285539Y183857D01*
X285486Y183726D01*
X285436Y183594D01*
X285389Y183461D01*
X285347Y183326D01*
X285308Y183190D01*
X285273Y183053D01*
X285242Y182916D01*
X285215Y182777D01*
X285191Y182638D01*
X285172Y182498D01*
X285156Y182358D01*
X285144Y182217D01*
X285136Y182076D01*
X285132Y181935D01*
X285132Y181793D01*
X285136Y181652D01*
X285144Y181511D01*
X285156Y181370D01*
X285172Y181230D01*
X285191Y181090D01*
X285215Y180951D01*
X285242Y180812D01*
X285273Y180675D01*
X285308Y180538D01*
X285347Y180402D01*
X285389Y180267D01*
X285436Y180134D01*
X285486Y180002D01*
X285539Y179871D01*
X285596Y179742D01*
X285657Y179615D01*
X285721Y179489D01*
X285789Y179365D01*
X285860Y179243D01*
X285935Y179123D01*
X286013Y179005D01*
X286094Y178889D01*
X286178Y178776D01*
X286266Y178665D01*
X286356Y178557D01*
X286449Y178451D01*
X286546Y178348D01*
X286645Y178247D01*
X286747Y178149D01*
X286851Y178054D01*
X286959Y177962D01*
X287068Y177873D01*
X287181Y177788D01*
X287295Y177705D01*
X287412Y177625D01*
X287531Y177549D01*
X287652Y177476D01*
X287775Y177407D01*
X287899Y177341D01*
X288026Y177278D01*
X288154Y177219D01*
X288284Y177164D01*
X288416Y177112D01*
X288548Y177064D01*
X288683Y177020D01*
X288818Y176979D01*
X288954Y176942D01*
X289091Y176909D01*
X289230Y176880D01*
X289369Y176855D01*
X289508Y176833D01*
X289648Y176815D01*
X289789Y176802D01*
X289930Y176792D01*
X290071Y176786D01*
X290212Y176784D01*
X295292Y176784D01*
X289196Y176784D02*
X285132Y168656D01*
X272896Y168656D02*
X268832Y168656D01*
X272896Y168656D02*
X273021Y168658D01*
X273146Y168664D01*
X273271Y168673D01*
X273395Y168687D01*
X273519Y168704D01*
X273643Y168725D01*
X273765Y168750D01*
X273887Y168779D01*
X274008Y168811D01*
X274128Y168847D01*
X274247Y168887D01*
X274364Y168930D01*
X274480Y168977D01*
X274595Y169028D01*
X274707Y169082D01*
X274819Y169140D01*
X274928Y169200D01*
X275035Y169265D01*
X275141Y169332D01*
X275244Y169403D01*
X275345Y169477D01*
X275444Y169554D01*
X275540Y169634D01*
X275634Y169717D01*
X275725Y169802D01*
X275814Y169891D01*
X275899Y169982D01*
X275982Y170076D01*
X276062Y170172D01*
X276139Y170271D01*
X276213Y170372D01*
X276284Y170475D01*
X276351Y170581D01*
X276416Y170688D01*
X276476Y170797D01*
X276534Y170909D01*
X276588Y171021D01*
X276639Y171136D01*
X276686Y171252D01*
X276729Y171369D01*
X276769Y171488D01*
X276805Y171608D01*
X276837Y171729D01*
X276866Y171851D01*
X276891Y171973D01*
X276912Y172097D01*
X276929Y172221D01*
X276943Y172345D01*
X276952Y172470D01*
X276958Y172595D01*
X276960Y172720D01*
X276960Y182880D01*
X276958Y183005D01*
X276952Y183130D01*
X276943Y183255D01*
X276929Y183379D01*
X276912Y183503D01*
X276891Y183627D01*
X276866Y183749D01*
X276837Y183871D01*
X276805Y183992D01*
X276769Y184112D01*
X276729Y184231D01*
X276686Y184348D01*
X276639Y184464D01*
X276588Y184579D01*
X276534Y184691D01*
X276476Y184803D01*
X276416Y184912D01*
X276351Y185019D01*
X276284Y185125D01*
X276213Y185228D01*
X276139Y185329D01*
X276062Y185428D01*
X275982Y185524D01*
X275899Y185618D01*
X275814Y185709D01*
X275725Y185798D01*
X275634Y185883D01*
X275540Y185966D01*
X275444Y186046D01*
X275345Y186123D01*
X275244Y186197D01*
X275141Y186268D01*
X275035Y186335D01*
X274928Y186400D01*
X274819Y186460D01*
X274707Y186518D01*
X274595Y186572D01*
X274480Y186623D01*
X274364Y186670D01*
X274247Y186713D01*
X274128Y186753D01*
X274008Y186789D01*
X273887Y186821D01*
X273765Y186850D01*
X273643Y186875D01*
X273519Y186896D01*
X273395Y186913D01*
X273271Y186927D01*
X273146Y186936D01*
X273021Y186942D01*
X272896Y186944D01*
X268832Y186944D01*
X260835Y186944D02*
X260835Y173736D01*
X260833Y173595D01*
X260827Y173454D01*
X260817Y173313D01*
X260804Y173172D01*
X260786Y173032D01*
X260764Y172893D01*
X260739Y172754D01*
X260710Y172615D01*
X260677Y172478D01*
X260640Y172342D01*
X260599Y172207D01*
X260555Y172072D01*
X260507Y171940D01*
X260455Y171808D01*
X260400Y171678D01*
X260341Y171550D01*
X260278Y171423D01*
X260212Y171299D01*
X260143Y171176D01*
X260070Y171055D01*
X259994Y170936D01*
X259914Y170819D01*
X259831Y170705D01*
X259746Y170592D01*
X259657Y170483D01*
X259565Y170375D01*
X259470Y170271D01*
X259372Y170169D01*
X259271Y170070D01*
X259168Y169973D01*
X259062Y169880D01*
X258954Y169790D01*
X258843Y169702D01*
X258730Y169618D01*
X258614Y169537D01*
X258496Y169459D01*
X258376Y169384D01*
X258254Y169313D01*
X258130Y169245D01*
X258004Y169181D01*
X257877Y169120D01*
X257748Y169063D01*
X257617Y169010D01*
X257485Y168960D01*
X257352Y168913D01*
X257217Y168871D01*
X257081Y168832D01*
X256944Y168797D01*
X256807Y168766D01*
X256668Y168739D01*
X256529Y168715D01*
X256389Y168696D01*
X256249Y168680D01*
X256108Y168668D01*
X255967Y168660D01*
X255826Y168656D01*
X255684Y168656D01*
X255543Y168660D01*
X255402Y168668D01*
X255261Y168680D01*
X255121Y168696D01*
X254981Y168715D01*
X254842Y168739D01*
X254703Y168766D01*
X254566Y168797D01*
X254429Y168832D01*
X254293Y168871D01*
X254158Y168913D01*
X254025Y168960D01*
X253893Y169010D01*
X253762Y169063D01*
X253633Y169120D01*
X253506Y169181D01*
X253380Y169245D01*
X253256Y169313D01*
X253134Y169384D01*
X253014Y169459D01*
X252896Y169537D01*
X252780Y169618D01*
X252667Y169702D01*
X252556Y169790D01*
X252448Y169880D01*
X252342Y169973D01*
X252239Y170070D01*
X252138Y170169D01*
X252040Y170271D01*
X251945Y170375D01*
X251853Y170483D01*
X251764Y170592D01*
X251679Y170705D01*
X251596Y170819D01*
X251516Y170936D01*
X251440Y171055D01*
X251367Y171176D01*
X251298Y171299D01*
X251232Y171423D01*
X251169Y171550D01*
X251110Y171678D01*
X251055Y171808D01*
X251003Y171940D01*
X250955Y172072D01*
X250911Y172207D01*
X250870Y172342D01*
X250833Y172478D01*
X250800Y172615D01*
X250771Y172754D01*
X250746Y172893D01*
X250724Y173032D01*
X250706Y173172D01*
X250693Y173313D01*
X250683Y173454D01*
X250677Y173595D01*
X250675Y173736D01*
X250675Y186944D01*
X240306Y186944D02*
X240306Y168656D01*
X242338Y168656D02*
X238274Y168656D01*
X238274Y186944D02*
X242338Y186944D01*
X226711Y186944D02*
X226711Y168656D01*
X231791Y186944D02*
X221631Y186944D01*
X204947Y172720D02*
X204949Y172595D01*
X204955Y172470D01*
X204964Y172345D01*
X204978Y172221D01*
X204995Y172097D01*
X205016Y171973D01*
X205041Y171851D01*
X205070Y171729D01*
X205102Y171608D01*
X205138Y171488D01*
X205178Y171369D01*
X205221Y171252D01*
X205268Y171136D01*
X205319Y171021D01*
X205373Y170909D01*
X205431Y170797D01*
X205491Y170688D01*
X205556Y170581D01*
X205623Y170475D01*
X205694Y170372D01*
X205768Y170271D01*
X205845Y170172D01*
X205925Y170076D01*
X206008Y169982D01*
X206093Y169891D01*
X206182Y169802D01*
X206273Y169717D01*
X206367Y169634D01*
X206463Y169554D01*
X206562Y169477D01*
X206663Y169403D01*
X206766Y169332D01*
X206872Y169265D01*
X206979Y169200D01*
X207088Y169140D01*
X207200Y169082D01*
X207312Y169028D01*
X207427Y168977D01*
X207543Y168930D01*
X207660Y168887D01*
X207779Y168847D01*
X207899Y168811D01*
X208020Y168779D01*
X208142Y168750D01*
X208264Y168725D01*
X208388Y168704D01*
X208512Y168687D01*
X208636Y168673D01*
X208761Y168664D01*
X208886Y168658D01*
X209011Y168656D01*
X209216Y168658D01*
X209422Y168666D01*
X209627Y168678D01*
X209831Y168695D01*
X210036Y168717D01*
X210239Y168744D01*
X210442Y168776D01*
X210644Y168813D01*
X210845Y168854D01*
X211046Y168901D01*
X211245Y168952D01*
X211442Y169007D01*
X211638Y169068D01*
X211833Y169133D01*
X212026Y169203D01*
X212218Y169277D01*
X212407Y169356D01*
X212595Y169440D01*
X212781Y169528D01*
X212964Y169620D01*
X213145Y169717D01*
X213324Y169818D01*
X213501Y169923D01*
X213674Y170033D01*
X213845Y170147D01*
X214014Y170264D01*
X214179Y170386D01*
X214342Y170512D01*
X214501Y170641D01*
X214658Y170774D01*
X214811Y170911D01*
X214960Y171052D01*
X215107Y171196D01*
X214599Y182880D02*
X214597Y183005D01*
X214591Y183130D01*
X214582Y183255D01*
X214568Y183379D01*
X214551Y183503D01*
X214530Y183627D01*
X214505Y183749D01*
X214476Y183871D01*
X214444Y183992D01*
X214408Y184112D01*
X214368Y184231D01*
X214325Y184348D01*
X214278Y184464D01*
X214227Y184579D01*
X214173Y184691D01*
X214115Y184803D01*
X214055Y184912D01*
X213990Y185019D01*
X213923Y185125D01*
X213852Y185228D01*
X213778Y185329D01*
X213701Y185428D01*
X213621Y185524D01*
X213538Y185618D01*
X213453Y185709D01*
X213364Y185798D01*
X213273Y185883D01*
X213179Y185966D01*
X213083Y186046D01*
X212984Y186123D01*
X212883Y186197D01*
X212780Y186268D01*
X212674Y186335D01*
X212567Y186400D01*
X212458Y186460D01*
X212346Y186518D01*
X212234Y186572D01*
X212119Y186623D01*
X212003Y186670D01*
X211886Y186713D01*
X211767Y186753D01*
X211647Y186789D01*
X211526Y186821D01*
X211404Y186850D01*
X211282Y186875D01*
X211158Y186896D01*
X211034Y186913D01*
X210910Y186927D01*
X210785Y186936D01*
X210660Y186942D01*
X210535Y186944D01*
X210353Y186942D01*
X210172Y186935D01*
X209991Y186925D01*
X209810Y186909D01*
X209629Y186890D01*
X209449Y186866D01*
X209270Y186838D01*
X209091Y186806D01*
X208913Y186769D01*
X208736Y186729D01*
X208560Y186684D01*
X208385Y186634D01*
X208212Y186581D01*
X208039Y186524D01*
X207869Y186462D01*
X207699Y186397D01*
X207531Y186327D01*
X207365Y186253D01*
X207201Y186176D01*
X207039Y186095D01*
X206878Y186009D01*
X206720Y185920D01*
X206564Y185828D01*
X206410Y185731D01*
X206259Y185631D01*
X206110Y185527D01*
X205963Y185420D01*
X212567Y179324D02*
X212674Y179389D01*
X212780Y179458D01*
X212883Y179530D01*
X212984Y179605D01*
X213083Y179684D01*
X213180Y179765D01*
X213274Y179849D01*
X213365Y179936D01*
X213453Y180026D01*
X213539Y180118D01*
X213622Y180213D01*
X213702Y180311D01*
X213779Y180410D01*
X213853Y180513D01*
X213923Y180617D01*
X213991Y180723D01*
X214055Y180832D01*
X214116Y180942D01*
X214173Y181055D01*
X214227Y181168D01*
X214278Y181284D01*
X214325Y181401D01*
X214368Y181519D01*
X214408Y181639D01*
X214444Y181760D01*
X214476Y181882D01*
X214505Y182004D01*
X214530Y182128D01*
X214551Y182252D01*
X214568Y182377D01*
X214582Y182502D01*
X214591Y182628D01*
X214597Y182754D01*
X214599Y182880D01*
X206978Y176276D02*
X206871Y176211D01*
X206765Y176142D01*
X206662Y176070D01*
X206561Y175995D01*
X206462Y175916D01*
X206365Y175835D01*
X206271Y175751D01*
X206180Y175664D01*
X206092Y175574D01*
X206006Y175482D01*
X205923Y175387D01*
X205843Y175289D01*
X205766Y175190D01*
X205692Y175087D01*
X205622Y174983D01*
X205554Y174877D01*
X205490Y174768D01*
X205429Y174658D01*
X205372Y174545D01*
X205318Y174432D01*
X205267Y174316D01*
X205220Y174199D01*
X205177Y174081D01*
X205137Y173961D01*
X205101Y173840D01*
X205069Y173718D01*
X205040Y173596D01*
X205015Y173472D01*
X204994Y173348D01*
X204977Y173223D01*
X204963Y173098D01*
X204954Y172972D01*
X204948Y172846D01*
X204946Y172720D01*
X206979Y176276D02*
X212567Y179324D01*
D11*
X658876Y20433D02*
X658876Y19812D01*
X658876Y20433D02*
X658255Y20433D01*
X658255Y19812D01*
X658876Y19812D01*
X652476Y24158D02*
X645026Y24158D01*
X632419Y20433D02*
X632419Y19812D01*
X632419Y20433D02*
X631799Y20433D01*
X631799Y19812D01*
X632419Y19812D01*
X626020Y24158D02*
X618569Y24158D01*
X612790Y20433D02*
X612790Y19812D01*
X612790Y20433D02*
X612169Y20433D01*
X612169Y19812D01*
X612790Y19812D01*
X607670Y19812D02*
X607670Y20433D01*
X607049Y20433D01*
X607049Y19812D01*
X607670Y19812D01*
X595722Y19812D02*
X595722Y20433D01*
X595101Y20433D01*
X595101Y19812D01*
X595722Y19812D01*
X589322Y24158D02*
X581871Y24158D01*
X576092Y20433D02*
X576092Y19812D01*
X576092Y20433D02*
X575472Y20433D01*
X575472Y19812D01*
X576092Y19812D01*
X570972Y19812D02*
X570972Y20433D01*
X570351Y20433D01*
X570351Y19812D01*
X570972Y19812D01*
X530434Y24158D02*
X522984Y24158D01*
X517205Y20433D02*
X517205Y19812D01*
X517205Y20433D02*
X516584Y20433D01*
X516584Y19812D01*
X517205Y19812D01*
X510805Y24158D02*
X503355Y24158D01*
X497576Y20433D02*
X497576Y19812D01*
X497576Y20433D02*
X496955Y20433D01*
X496955Y19812D01*
X497576Y19812D01*
X484349Y24158D02*
X476898Y24158D01*
X469840Y24158D02*
X462390Y24158D01*
X455332Y24158D02*
X447881Y24158D01*
X435275Y20433D02*
X435275Y19812D01*
X435275Y20433D02*
X434654Y20433D01*
X434654Y19812D01*
X435275Y19812D01*
X428875Y24158D02*
X421425Y24158D01*
X414367Y24158D02*
X406916Y24158D01*
X401137Y20433D02*
X401137Y19812D01*
X401137Y20433D02*
X400516Y20433D01*
X400516Y19812D01*
X401137Y19812D01*
X389189Y19812D02*
X389189Y20433D01*
X388568Y20433D01*
X388568Y19812D01*
X389189Y19812D01*
X384069Y19812D02*
X384069Y20433D01*
X383448Y20433D01*
X383448Y19812D01*
X384069Y19812D01*
X378948Y19812D02*
X378948Y20433D01*
X378327Y20433D01*
X378327Y19812D01*
X378948Y19812D01*
X339690Y19812D02*
X339690Y20433D01*
X339069Y20433D01*
X339069Y19812D01*
X339690Y19812D01*
X333290Y24158D02*
X325839Y24158D01*
X313233Y20433D02*
X313233Y19812D01*
X313233Y20433D02*
X312612Y20433D01*
X312612Y19812D01*
X313233Y19812D01*
X306833Y24158D02*
X299383Y24158D01*
X293604Y20433D02*
X293604Y19812D01*
X293604Y20433D02*
X292983Y20433D01*
X292983Y19812D01*
X293604Y19812D01*
X281656Y19812D02*
X281656Y20433D01*
X281035Y20433D01*
X281035Y19812D01*
X281656Y19812D01*
X241118Y24158D02*
X233668Y24158D01*
X227889Y20433D02*
X227889Y19812D01*
X227889Y20433D02*
X227268Y20433D01*
X227268Y19812D01*
X227889Y19812D01*
X222768Y19812D02*
X222768Y20433D01*
X222147Y20433D01*
X222147Y19812D01*
X222768Y19812D01*
X217648Y19812D02*
X217648Y20433D01*
X217027Y20433D01*
X217027Y19812D01*
X217648Y19812D01*
X205700Y19812D02*
X205700Y20433D01*
X205079Y20433D01*
X205079Y19812D01*
X205700Y19812D01*
X199300Y24158D02*
X191849Y24158D01*
X179243Y20433D02*
X179243Y19812D01*
X179243Y20433D02*
X178622Y20433D01*
X178622Y19812D01*
X179243Y19812D01*
X174122Y19812D02*
X174122Y20433D01*
X173501Y20433D01*
X173501Y19812D01*
X174122Y19812D01*
X169002Y19812D02*
X169002Y20433D01*
X168381Y20433D01*
X168381Y19812D01*
X169002Y19812D01*
X155775Y24158D02*
X148324Y24158D01*
X135718Y20433D02*
X135718Y19812D01*
X135718Y20433D02*
X135097Y20433D01*
X135097Y19812D01*
X135718Y19812D01*
X129318Y24158D02*
X121867Y24158D01*
X109261Y20433D02*
X109261Y19812D01*
X109261Y20433D02*
X108640Y20433D01*
X108640Y19812D01*
X109261Y19812D01*
X102861Y24158D02*
X95411Y24158D01*
X89632Y20433D02*
X89632Y19812D01*
X89632Y20433D02*
X89011Y20433D01*
X89011Y19812D01*
X89632Y19812D01*
X76405Y24158D02*
X68954Y24158D01*
X63175Y20433D02*
X63175Y19812D01*
X63175Y20433D02*
X62554Y20433D01*
X62554Y19812D01*
X63175Y19812D01*
X58055Y19812D02*
X58055Y20433D01*
X57434Y20433D01*
X57434Y19812D01*
X58055Y19812D01*
X46106Y19812D02*
X46106Y20433D01*
X45486Y20433D01*
X45486Y19812D01*
X46106Y19812D01*
X40986Y19812D02*
X40986Y20433D01*
X40365Y20433D01*
X40365Y19812D01*
X40986Y19812D01*
X35865Y19812D02*
X35865Y20433D01*
X35244Y20433D01*
X35244Y19812D01*
X35865Y19812D01*
D13*
X619845Y686816D02*
X619728Y686818D01*
X619611Y686824D01*
X619495Y686834D01*
X619378Y686847D01*
X619263Y686865D01*
X619148Y686886D01*
X619034Y686911D01*
X618920Y686940D01*
X618808Y686973D01*
X618697Y687010D01*
X618587Y687050D01*
X618479Y687094D01*
X618372Y687141D01*
X618266Y687192D01*
X618163Y687247D01*
X618061Y687305D01*
X617962Y687366D01*
X617864Y687430D01*
X617769Y687498D01*
X617676Y687569D01*
X617585Y687643D01*
X617497Y687720D01*
X617412Y687800D01*
X617329Y687883D01*
X617249Y687968D01*
X617172Y688056D01*
X617098Y688147D01*
X617027Y688240D01*
X616959Y688335D01*
X616895Y688433D01*
X616834Y688532D01*
X616776Y688634D01*
X616721Y688737D01*
X616670Y688843D01*
X616623Y688950D01*
X616579Y689058D01*
X616539Y689168D01*
X616502Y689279D01*
X616469Y689391D01*
X616440Y689505D01*
X616415Y689619D01*
X616394Y689734D01*
X616376Y689849D01*
X616363Y689966D01*
X616353Y690082D01*
X616347Y690199D01*
X616345Y690316D01*
X619845Y686816D02*
X620022Y686818D01*
X620199Y686824D01*
X620375Y686835D01*
X620551Y686850D01*
X620727Y686869D01*
X620903Y686892D01*
X621077Y686919D01*
X621252Y686951D01*
X621425Y686987D01*
X621597Y687027D01*
X621768Y687071D01*
X621939Y687119D01*
X622108Y687171D01*
X622275Y687227D01*
X622442Y687287D01*
X622607Y687351D01*
X622770Y687419D01*
X622932Y687491D01*
X623091Y687567D01*
X623249Y687646D01*
X623405Y687730D01*
X623559Y687817D01*
X623711Y687908D01*
X623861Y688002D01*
X624008Y688100D01*
X624153Y688201D01*
X624296Y688306D01*
X624436Y688414D01*
X624573Y688525D01*
X624708Y688640D01*
X624839Y688758D01*
X624968Y688879D01*
X625094Y689003D01*
X624657Y699064D02*
X624655Y699181D01*
X624649Y699298D01*
X624639Y699414D01*
X624626Y699531D01*
X624608Y699646D01*
X624587Y699761D01*
X624562Y699875D01*
X624533Y699989D01*
X624500Y700101D01*
X624463Y700212D01*
X624423Y700322D01*
X624379Y700430D01*
X624332Y700537D01*
X624281Y700643D01*
X624226Y700746D01*
X624168Y700848D01*
X624107Y700947D01*
X624043Y701045D01*
X623975Y701140D01*
X623904Y701233D01*
X623830Y701324D01*
X623753Y701412D01*
X623673Y701497D01*
X623590Y701580D01*
X623505Y701660D01*
X623417Y701737D01*
X623326Y701811D01*
X623233Y701882D01*
X623138Y701950D01*
X623040Y702014D01*
X622941Y702075D01*
X622839Y702133D01*
X622736Y702188D01*
X622630Y702239D01*
X622523Y702286D01*
X622415Y702330D01*
X622305Y702370D01*
X622194Y702407D01*
X622082Y702440D01*
X621968Y702469D01*
X621854Y702494D01*
X621739Y702515D01*
X621624Y702533D01*
X621507Y702546D01*
X621391Y702556D01*
X621274Y702562D01*
X621157Y702564D01*
X621001Y702562D01*
X620844Y702557D01*
X620688Y702547D01*
X620532Y702534D01*
X620377Y702517D01*
X620222Y702497D01*
X620067Y702473D01*
X619913Y702445D01*
X619760Y702414D01*
X619608Y702379D01*
X619456Y702340D01*
X619306Y702297D01*
X619156Y702252D01*
X619008Y702202D01*
X618861Y702149D01*
X618715Y702093D01*
X618570Y702033D01*
X618427Y701969D01*
X618286Y701903D01*
X618146Y701833D01*
X618008Y701759D01*
X617872Y701682D01*
X617737Y701603D01*
X617605Y701519D01*
X617474Y701433D01*
X617346Y701344D01*
X617220Y701252D01*
X622906Y696002D02*
X623005Y696062D01*
X623101Y696126D01*
X623195Y696192D01*
X623287Y696261D01*
X623377Y696334D01*
X623465Y696409D01*
X623549Y696487D01*
X623632Y696568D01*
X623711Y696651D01*
X623788Y696737D01*
X623862Y696825D01*
X623934Y696916D01*
X624002Y697009D01*
X624067Y697104D01*
X624129Y697202D01*
X624188Y697301D01*
X624243Y697402D01*
X624296Y697505D01*
X624345Y697609D01*
X624390Y697715D01*
X624432Y697822D01*
X624471Y697931D01*
X624506Y698041D01*
X624537Y698152D01*
X624565Y698264D01*
X624589Y698376D01*
X624609Y698490D01*
X624626Y698604D01*
X624639Y698719D01*
X624649Y698834D01*
X624654Y698949D01*
X624656Y699064D01*
X618095Y693378D02*
X617996Y693318D01*
X617900Y693254D01*
X617806Y693188D01*
X617714Y693119D01*
X617624Y693046D01*
X617536Y692971D01*
X617452Y692893D01*
X617369Y692812D01*
X617290Y692729D01*
X617213Y692643D01*
X617139Y692555D01*
X617067Y692464D01*
X616999Y692371D01*
X616934Y692276D01*
X616872Y692178D01*
X616813Y692079D01*
X616758Y691978D01*
X616705Y691875D01*
X616657Y691771D01*
X616611Y691665D01*
X616569Y691558D01*
X616530Y691449D01*
X616495Y691339D01*
X616464Y691228D01*
X616436Y691116D01*
X616412Y691004D01*
X616392Y690890D01*
X616375Y690776D01*
X616362Y690661D01*
X616352Y690546D01*
X616347Y690431D01*
X616345Y690316D01*
X618095Y693378D02*
X622907Y696002D01*
X609463Y702564D02*
X609463Y686816D01*
X609463Y702564D02*
X605088Y702564D01*
X604958Y702562D01*
X604829Y702556D01*
X604700Y702547D01*
X604571Y702533D01*
X604442Y702516D01*
X604314Y702495D01*
X604187Y702470D01*
X604061Y702442D01*
X603935Y702409D01*
X603811Y702373D01*
X603687Y702334D01*
X603565Y702290D01*
X603444Y702243D01*
X603325Y702193D01*
X603207Y702139D01*
X603091Y702081D01*
X602976Y702020D01*
X602864Y701956D01*
X602753Y701889D01*
X602644Y701818D01*
X602538Y701744D01*
X602434Y701667D01*
X602332Y701587D01*
X602233Y701503D01*
X602136Y701417D01*
X602041Y701328D01*
X601950Y701237D01*
X601861Y701142D01*
X601775Y701045D01*
X601691Y700946D01*
X601611Y700844D01*
X601534Y700740D01*
X601460Y700634D01*
X601389Y700525D01*
X601322Y700414D01*
X601258Y700302D01*
X601197Y700187D01*
X601139Y700071D01*
X601085Y699953D01*
X601035Y699834D01*
X600988Y699713D01*
X600944Y699591D01*
X600905Y699467D01*
X600869Y699343D01*
X600836Y699217D01*
X600808Y699091D01*
X600783Y698964D01*
X600762Y698836D01*
X600745Y698707D01*
X600731Y698578D01*
X600722Y698449D01*
X600716Y698320D01*
X600714Y698190D01*
X600714Y691190D01*
X600716Y691060D01*
X600722Y690931D01*
X600731Y690802D01*
X600745Y690673D01*
X600762Y690544D01*
X600783Y690416D01*
X600808Y690289D01*
X600836Y690163D01*
X600869Y690037D01*
X600905Y689913D01*
X600944Y689789D01*
X600988Y689667D01*
X601035Y689546D01*
X601085Y689427D01*
X601139Y689309D01*
X601197Y689193D01*
X601258Y689078D01*
X601322Y688966D01*
X601389Y688855D01*
X601460Y688746D01*
X601534Y688640D01*
X601611Y688536D01*
X601691Y688434D01*
X601775Y688335D01*
X601861Y688238D01*
X601950Y688143D01*
X602041Y688052D01*
X602136Y687963D01*
X602233Y687877D01*
X602332Y687793D01*
X602434Y687713D01*
X602538Y687636D01*
X602644Y687562D01*
X602753Y687491D01*
X602864Y687424D01*
X602976Y687360D01*
X603091Y687299D01*
X603207Y687241D01*
X603325Y687187D01*
X603444Y687137D01*
X603565Y687090D01*
X603687Y687046D01*
X603811Y687007D01*
X603935Y686971D01*
X604061Y686938D01*
X604187Y686910D01*
X604314Y686885D01*
X604442Y686864D01*
X604571Y686847D01*
X604700Y686833D01*
X604829Y686824D01*
X604958Y686818D01*
X605088Y686816D01*
X609463Y686816D01*
X594185Y686816D02*
X588936Y702564D01*
X583687Y686816D01*
X584999Y690753D02*
X592873Y690753D01*
X616035Y713486D02*
X615918Y713488D01*
X615801Y713494D01*
X615685Y713504D01*
X615568Y713517D01*
X615453Y713535D01*
X615338Y713556D01*
X615224Y713581D01*
X615110Y713610D01*
X614998Y713643D01*
X614887Y713680D01*
X614777Y713720D01*
X614669Y713764D01*
X614562Y713811D01*
X614456Y713862D01*
X614353Y713917D01*
X614251Y713975D01*
X614152Y714036D01*
X614054Y714100D01*
X613959Y714168D01*
X613866Y714239D01*
X613775Y714313D01*
X613687Y714390D01*
X613602Y714470D01*
X613519Y714553D01*
X613439Y714638D01*
X613362Y714726D01*
X613288Y714817D01*
X613217Y714910D01*
X613149Y715005D01*
X613085Y715103D01*
X613024Y715202D01*
X612966Y715304D01*
X612911Y715407D01*
X612860Y715513D01*
X612813Y715620D01*
X612769Y715728D01*
X612729Y715838D01*
X612692Y715949D01*
X612659Y716061D01*
X612630Y716175D01*
X612605Y716289D01*
X612584Y716404D01*
X612566Y716519D01*
X612553Y716636D01*
X612543Y716752D01*
X612537Y716869D01*
X612535Y716986D01*
X616035Y713486D02*
X616212Y713488D01*
X616389Y713494D01*
X616565Y713505D01*
X616741Y713520D01*
X616917Y713539D01*
X617093Y713562D01*
X617267Y713589D01*
X617442Y713621D01*
X617615Y713657D01*
X617787Y713697D01*
X617958Y713741D01*
X618129Y713789D01*
X618298Y713841D01*
X618465Y713897D01*
X618632Y713957D01*
X618797Y714021D01*
X618960Y714089D01*
X619122Y714161D01*
X619281Y714237D01*
X619439Y714316D01*
X619595Y714400D01*
X619749Y714487D01*
X619901Y714578D01*
X620051Y714672D01*
X620198Y714770D01*
X620343Y714871D01*
X620486Y714976D01*
X620626Y715084D01*
X620763Y715195D01*
X620898Y715310D01*
X621029Y715428D01*
X621158Y715549D01*
X621284Y715673D01*
X620847Y725734D02*
X620845Y725851D01*
X620839Y725968D01*
X620829Y726084D01*
X620816Y726201D01*
X620798Y726316D01*
X620777Y726431D01*
X620752Y726545D01*
X620723Y726659D01*
X620690Y726771D01*
X620653Y726882D01*
X620613Y726992D01*
X620569Y727100D01*
X620522Y727207D01*
X620471Y727313D01*
X620416Y727416D01*
X620358Y727518D01*
X620297Y727617D01*
X620233Y727715D01*
X620165Y727810D01*
X620094Y727903D01*
X620020Y727994D01*
X619943Y728082D01*
X619863Y728167D01*
X619780Y728250D01*
X619695Y728330D01*
X619607Y728407D01*
X619516Y728481D01*
X619423Y728552D01*
X619328Y728620D01*
X619230Y728684D01*
X619131Y728745D01*
X619029Y728803D01*
X618926Y728858D01*
X618820Y728909D01*
X618713Y728956D01*
X618605Y729000D01*
X618495Y729040D01*
X618384Y729077D01*
X618272Y729110D01*
X618158Y729139D01*
X618044Y729164D01*
X617929Y729185D01*
X617814Y729203D01*
X617697Y729216D01*
X617581Y729226D01*
X617464Y729232D01*
X617347Y729234D01*
X617191Y729232D01*
X617034Y729227D01*
X616878Y729217D01*
X616722Y729204D01*
X616567Y729187D01*
X616412Y729167D01*
X616257Y729143D01*
X616103Y729115D01*
X615950Y729084D01*
X615798Y729049D01*
X615646Y729010D01*
X615496Y728967D01*
X615346Y728922D01*
X615198Y728872D01*
X615051Y728819D01*
X614905Y728763D01*
X614760Y728703D01*
X614617Y728639D01*
X614476Y728573D01*
X614336Y728503D01*
X614198Y728429D01*
X614062Y728352D01*
X613927Y728273D01*
X613795Y728189D01*
X613664Y728103D01*
X613536Y728014D01*
X613410Y727922D01*
X619096Y722672D02*
X619195Y722732D01*
X619291Y722796D01*
X619385Y722862D01*
X619477Y722931D01*
X619567Y723004D01*
X619655Y723079D01*
X619739Y723157D01*
X619822Y723238D01*
X619901Y723321D01*
X619978Y723407D01*
X620052Y723495D01*
X620124Y723586D01*
X620192Y723679D01*
X620257Y723774D01*
X620319Y723872D01*
X620378Y723971D01*
X620433Y724072D01*
X620486Y724175D01*
X620535Y724279D01*
X620580Y724385D01*
X620622Y724492D01*
X620661Y724601D01*
X620696Y724711D01*
X620727Y724822D01*
X620755Y724934D01*
X620779Y725046D01*
X620799Y725160D01*
X620816Y725274D01*
X620829Y725389D01*
X620839Y725504D01*
X620844Y725619D01*
X620846Y725734D01*
X614285Y720048D02*
X614186Y719988D01*
X614090Y719924D01*
X613996Y719858D01*
X613904Y719789D01*
X613814Y719716D01*
X613726Y719641D01*
X613642Y719563D01*
X613559Y719482D01*
X613480Y719399D01*
X613403Y719313D01*
X613329Y719225D01*
X613257Y719134D01*
X613189Y719041D01*
X613124Y718946D01*
X613062Y718848D01*
X613003Y718749D01*
X612948Y718648D01*
X612895Y718545D01*
X612847Y718441D01*
X612801Y718335D01*
X612759Y718228D01*
X612720Y718119D01*
X612685Y718009D01*
X612654Y717898D01*
X612626Y717786D01*
X612602Y717674D01*
X612582Y717560D01*
X612565Y717446D01*
X612552Y717331D01*
X612542Y717216D01*
X612537Y717101D01*
X612535Y716986D01*
X614285Y720048D02*
X619097Y722672D01*
X602722Y713486D02*
X599222Y713486D01*
X602722Y713486D02*
X602839Y713488D01*
X602956Y713494D01*
X603072Y713504D01*
X603189Y713517D01*
X603304Y713535D01*
X603419Y713556D01*
X603533Y713581D01*
X603647Y713610D01*
X603759Y713643D01*
X603870Y713680D01*
X603980Y713720D01*
X604088Y713764D01*
X604195Y713811D01*
X604301Y713862D01*
X604404Y713917D01*
X604506Y713975D01*
X604605Y714036D01*
X604703Y714100D01*
X604798Y714168D01*
X604891Y714239D01*
X604982Y714313D01*
X605070Y714390D01*
X605155Y714470D01*
X605238Y714553D01*
X605318Y714638D01*
X605395Y714726D01*
X605469Y714817D01*
X605540Y714910D01*
X605608Y715005D01*
X605672Y715103D01*
X605733Y715202D01*
X605791Y715304D01*
X605846Y715407D01*
X605897Y715513D01*
X605944Y715620D01*
X605988Y715728D01*
X606028Y715838D01*
X606065Y715949D01*
X606098Y716061D01*
X606127Y716175D01*
X606152Y716289D01*
X606173Y716404D01*
X606191Y716520D01*
X606204Y716636D01*
X606214Y716752D01*
X606220Y716869D01*
X606222Y716986D01*
X606221Y716986D02*
X606221Y725734D01*
X606222Y725734D02*
X606220Y725851D01*
X606214Y725968D01*
X606204Y726084D01*
X606191Y726200D01*
X606173Y726316D01*
X606152Y726431D01*
X606127Y726545D01*
X606098Y726659D01*
X606065Y726771D01*
X606028Y726882D01*
X605988Y726992D01*
X605944Y727100D01*
X605897Y727207D01*
X605846Y727313D01*
X605791Y727416D01*
X605733Y727518D01*
X605672Y727617D01*
X605608Y727715D01*
X605540Y727810D01*
X605469Y727903D01*
X605395Y727994D01*
X605318Y728082D01*
X605238Y728167D01*
X605155Y728250D01*
X605070Y728330D01*
X604982Y728407D01*
X604891Y728481D01*
X604798Y728552D01*
X604703Y728620D01*
X604605Y728684D01*
X604506Y728745D01*
X604404Y728803D01*
X604301Y728858D01*
X604195Y728909D01*
X604088Y728956D01*
X603980Y729000D01*
X603870Y729040D01*
X603759Y729077D01*
X603647Y729110D01*
X603533Y729139D01*
X603419Y729164D01*
X603304Y729185D01*
X603189Y729203D01*
X603072Y729216D01*
X602956Y729226D01*
X602839Y729232D01*
X602722Y729234D01*
X599222Y729234D01*
X592591Y729234D02*
X592591Y713486D01*
X585592Y713486D01*
X617615Y775575D02*
X620240Y775575D01*
X617615Y775575D02*
X617615Y766826D01*
X622864Y766826D01*
X622981Y766828D01*
X623098Y766834D01*
X623214Y766844D01*
X623331Y766857D01*
X623446Y766875D01*
X623561Y766896D01*
X623675Y766921D01*
X623789Y766950D01*
X623901Y766983D01*
X624012Y767020D01*
X624122Y767060D01*
X624230Y767104D01*
X624337Y767151D01*
X624443Y767202D01*
X624546Y767257D01*
X624648Y767315D01*
X624747Y767376D01*
X624845Y767440D01*
X624940Y767508D01*
X625033Y767579D01*
X625124Y767653D01*
X625212Y767730D01*
X625297Y767810D01*
X625380Y767893D01*
X625460Y767978D01*
X625537Y768066D01*
X625611Y768157D01*
X625682Y768250D01*
X625750Y768345D01*
X625814Y768443D01*
X625875Y768542D01*
X625933Y768644D01*
X625988Y768747D01*
X626039Y768853D01*
X626086Y768960D01*
X626130Y769068D01*
X626170Y769178D01*
X626207Y769289D01*
X626240Y769401D01*
X626269Y769515D01*
X626294Y769629D01*
X626315Y769744D01*
X626333Y769860D01*
X626346Y769976D01*
X626356Y770092D01*
X626362Y770209D01*
X626364Y770326D01*
X626364Y779074D01*
X626362Y779191D01*
X626356Y779308D01*
X626346Y779424D01*
X626333Y779540D01*
X626315Y779656D01*
X626294Y779771D01*
X626269Y779885D01*
X626240Y779999D01*
X626207Y780111D01*
X626170Y780222D01*
X626130Y780332D01*
X626086Y780440D01*
X626039Y780547D01*
X625988Y780653D01*
X625933Y780756D01*
X625875Y780858D01*
X625814Y780957D01*
X625750Y781055D01*
X625682Y781150D01*
X625611Y781243D01*
X625537Y781334D01*
X625460Y781422D01*
X625380Y781507D01*
X625297Y781590D01*
X625212Y781670D01*
X625124Y781747D01*
X625033Y781821D01*
X624940Y781892D01*
X624845Y781960D01*
X624747Y782024D01*
X624648Y782085D01*
X624546Y782143D01*
X624443Y782198D01*
X624337Y782249D01*
X624230Y782296D01*
X624122Y782340D01*
X624012Y782380D01*
X623901Y782417D01*
X623789Y782450D01*
X623675Y782479D01*
X623561Y782504D01*
X623446Y782525D01*
X623331Y782543D01*
X623214Y782556D01*
X623098Y782566D01*
X622981Y782572D01*
X622864Y782574D01*
X617615Y782574D01*
X609691Y782574D02*
X609691Y766826D01*
X600942Y766826D02*
X609691Y782574D01*
X600942Y782574D02*
X600942Y766826D01*
X593017Y766826D02*
X593017Y782574D01*
X588643Y782574D01*
X588513Y782572D01*
X588384Y782566D01*
X588255Y782557D01*
X588126Y782543D01*
X587997Y782526D01*
X587869Y782505D01*
X587742Y782480D01*
X587616Y782452D01*
X587490Y782419D01*
X587366Y782383D01*
X587242Y782344D01*
X587120Y782300D01*
X586999Y782253D01*
X586880Y782203D01*
X586762Y782149D01*
X586646Y782091D01*
X586531Y782030D01*
X586419Y781966D01*
X586308Y781899D01*
X586199Y781828D01*
X586093Y781754D01*
X585989Y781677D01*
X585887Y781597D01*
X585788Y781513D01*
X585691Y781427D01*
X585596Y781338D01*
X585505Y781247D01*
X585416Y781152D01*
X585330Y781055D01*
X585246Y780956D01*
X585166Y780854D01*
X585089Y780750D01*
X585015Y780644D01*
X584944Y780535D01*
X584877Y780424D01*
X584813Y780312D01*
X584752Y780197D01*
X584694Y780081D01*
X584640Y779963D01*
X584590Y779844D01*
X584543Y779723D01*
X584499Y779601D01*
X584460Y779477D01*
X584424Y779353D01*
X584391Y779227D01*
X584363Y779101D01*
X584338Y778974D01*
X584317Y778846D01*
X584300Y778717D01*
X584286Y778588D01*
X584277Y778459D01*
X584271Y778330D01*
X584269Y778200D01*
X584269Y771200D01*
X584271Y771070D01*
X584277Y770941D01*
X584286Y770812D01*
X584300Y770683D01*
X584317Y770554D01*
X584338Y770426D01*
X584363Y770299D01*
X584391Y770173D01*
X584424Y770047D01*
X584460Y769923D01*
X584499Y769799D01*
X584543Y769677D01*
X584590Y769556D01*
X584640Y769437D01*
X584694Y769319D01*
X584752Y769203D01*
X584813Y769088D01*
X584877Y768976D01*
X584944Y768865D01*
X585015Y768756D01*
X585089Y768650D01*
X585166Y768546D01*
X585246Y768444D01*
X585330Y768345D01*
X585416Y768248D01*
X585505Y768153D01*
X585596Y768062D01*
X585691Y767973D01*
X585788Y767887D01*
X585887Y767803D01*
X585989Y767723D01*
X586093Y767646D01*
X586199Y767572D01*
X586308Y767501D01*
X586419Y767434D01*
X586531Y767370D01*
X586646Y767309D01*
X586762Y767251D01*
X586880Y767197D01*
X586999Y767147D01*
X587120Y767100D01*
X587242Y767056D01*
X587366Y767017D01*
X587490Y766981D01*
X587616Y766948D01*
X587742Y766920D01*
X587869Y766895D01*
X587997Y766874D01*
X588126Y766857D01*
X588255Y766843D01*
X588384Y766834D01*
X588513Y766828D01*
X588643Y766826D01*
X593017Y766826D01*
D14*
X152400Y717804D02*
X152400Y704596D01*
X177800Y704596D02*
X177800Y717804D01*
X203200Y717804D02*
X203200Y704596D01*
X228600Y704596D02*
X228600Y717804D01*
X254000Y717804D02*
X254000Y704596D01*
X279400Y704596D02*
X279400Y717804D01*
X304800Y717804D02*
X304800Y704596D01*
X330200Y704596D02*
X330200Y717804D01*
X355600Y717804D02*
X355600Y704596D01*
X381000Y704596D02*
X381000Y717804D01*
X406400Y717804D02*
X406400Y704596D01*
X431800Y704596D02*
X431800Y717804D01*
X457200Y717804D02*
X457200Y704596D01*
X482600Y704596D02*
X482600Y717804D01*
X482600Y780796D02*
X482600Y794004D01*
X457200Y794004D02*
X457200Y780796D01*
X431800Y780796D02*
X431800Y794004D01*
X406400Y794004D02*
X406400Y780796D01*
X381000Y780796D02*
X381000Y794004D01*
X355600Y794004D02*
X355600Y780796D01*
X330200Y780796D02*
X330200Y794004D01*
X304800Y794004D02*
X304800Y780796D01*
X279400Y780796D02*
X279400Y794004D01*
X254000Y794004D02*
X254000Y780796D01*
X228600Y780796D02*
X228600Y794004D01*
X203200Y794004D02*
X203200Y780796D01*
X177800Y780796D02*
X177800Y794004D01*
X152400Y794004D02*
X152400Y780796D01*
D15*
X558800Y774700D03*
X558800Y749300D03*
X558800Y723900D03*
X558800Y698500D03*
D16*
X63500Y609600D03*
X127000Y635000D03*
D17*
X101600Y584200D03*
D18*
X152400Y584200D03*
X50800Y584200D03*
D16*
X63500Y444500D03*
X127000Y469900D03*
D17*
X101600Y419100D03*
D18*
X152400Y419100D03*
X50800Y419100D03*
D16*
X63500Y279400D03*
X127000Y304800D03*
D17*
X101600Y254000D03*
D18*
X152400Y254000D03*
X50800Y254000D03*
D16*
X63500Y114300D03*
X127000Y139700D03*
D17*
X101600Y88900D03*
D18*
X152400Y88900D03*
X50800Y88900D03*
D16*
X228600Y609600D03*
X292100Y635000D03*
D17*
X266700Y584200D03*
D18*
X317500Y584200D03*
X215900Y584200D03*
D16*
X228600Y444500D03*
X292100Y469900D03*
D17*
X266700Y419100D03*
D18*
X317500Y419100D03*
X215900Y419100D03*
D16*
X228600Y279400D03*
X292100Y304800D03*
D17*
X266700Y254000D03*
D18*
X317500Y254000D03*
X215900Y254000D03*
D16*
X228600Y114300D03*
X292100Y139700D03*
D17*
X266700Y88900D03*
D18*
X317500Y88900D03*
X215900Y88900D03*
D16*
X393700Y609600D03*
X457200Y635000D03*
D17*
X431800Y584200D03*
D18*
X482600Y584200D03*
X381000Y584200D03*
D16*
X393700Y444500D03*
X457200Y469900D03*
D17*
X431800Y419100D03*
D18*
X482600Y419100D03*
X381000Y419100D03*
D16*
X393700Y279400D03*
X457200Y304800D03*
D17*
X431800Y254000D03*
D18*
X482600Y254000D03*
X381000Y254000D03*
D16*
X393700Y114300D03*
X457200Y139700D03*
D17*
X431800Y88900D03*
D18*
X482600Y88900D03*
X381000Y88900D03*
D16*
X558800Y609600D03*
X622300Y635000D03*
D17*
X596900Y584200D03*
D18*
X647700Y584200D03*
X546100Y584200D03*
D16*
X558800Y444500D03*
X622300Y469900D03*
D17*
X596900Y419100D03*
D18*
X647700Y419100D03*
X546100Y419100D03*
D16*
X558800Y279400D03*
X622300Y304800D03*
D17*
X596900Y254000D03*
D18*
X647700Y254000D03*
X546100Y254000D03*
D16*
X558800Y114300D03*
X622300Y139700D03*
D17*
X596900Y88900D03*
D18*
X647700Y88900D03*
X546100Y88900D03*
D19*
X558800Y812800D03*
X63500Y685800D03*
X139700Y381000D03*
X228600Y381000D03*
X76200Y215900D03*
X241300Y215900D03*
X635000Y203200D03*
X609600Y533400D03*
X292100Y533400D03*
X558800Y50800D03*
X355600Y63500D03*
X635000Y50800D03*
X457200Y546100D03*
X224790Y673100D03*
X146050Y200660D03*
X584200Y368300D03*
M02*
